<svg width="269" height="70" viewBox="0 0 269 70" fill="none" xmlns="http://www.w3.org/2000/svg"><path d="M54.818 49.2a36.55 36.55 0 01-4.63 9.432c-2.792 4.035-5.678 8.06-10.235 8.143-4.557.084-5.91-2.64-11.017-2.64-5.106 0-6.724 2.546-10.953 2.714-4.398.167-7.75-4.36-10.573-8.385-5.73-8.227-10.118-23.277-4.229-33.38a16.278 16.278 0 015.806-5.969 16.462 16.462 0 018.023-2.342c4.324-.074 8.395 2.882 11.038 2.882 2.643 0 7.58-3.564 12.793-3.04 2.41.086 4.769.724 6.89 1.864a15.584 15.584 0 015.332 4.708c-.317.199-7.306 4.192-7.221 12.576.008 2.86.863 5.655 2.46 8.038a14.71 14.71 0 006.516 5.367v.032zM37.394 11.175A14.465 14.465 0 0040.904.601a14.983 14.983 0 00-9.853 5.02c-2.168 2.474-4.06 6.446-3.542 10.24 3.753.293 7.591-1.887 9.885-4.685zm57.57 24.986h-2.823l-1.554-4.831h-5.392l-1.47 4.831h-2.76l5.34-16.444h3.299l5.36 16.444zm-4.842-6.854l-1.406-4.297c-.148-.44-.413-1.467-.836-3.091-.169.702-.412 1.729-.782 3.091l-1.375 4.297h4.399zm7.062-4.905a29.963 29.963 0 014.081-.272c1.945 0 5.392.252 5.392 3.05a2.675 2.675 0 01-.725 1.702 2.718 2.718 0 01-1.664.834v.073c1.744.294 2.907 1.206 2.907 2.883 0 3.343-4.229 3.636-6.523 3.636-1.3 0-2.675-.073-3.51-.146l.042-11.76zm2.59 4.738h1.354c1.67 0 3.023-.399 3.023-1.593 0-1.195-.888-1.562-2.801-1.562a12.98 12.98 0 00-1.576.105v3.05zm0 5.24c.529.07 1.063.104 1.597.105 1.48 0 3.171-.325 3.171-1.855 0-1.373-1.332-1.814-3.372-1.814h-1.396v3.564zm18.491-10.072v2.096h-3.69v9.716h-2.601v-9.674h-3.616V24.35l9.907-.042zm6.938 12.115c-3.489 0-5.762-2.578-5.762-6.089 0-3.668 2.315-6.288 5.963-6.288 3.447 0 5.751 2.473 5.751 6.079 0 3.605-2.378 6.298-5.952 6.298zm.095-10.48c-1.913 0-3.172 1.782-3.172 4.276 0 2.494 1.259 4.192 3.172 4.192 1.914 0 3.172-1.897 3.172-4.265 0-2.369-1.3-4.161-3.172-4.161v-.042zm14.492 10.481a3.685 3.685 0 01-1.933-.369 3.643 3.643 0 01-1.461-1.308v6.288h-2.654V28.207c0-1.268 0-2.557-.105-3.899h2.347l.137 1.876a4.435 4.435 0 011.728-1.6 4.487 4.487 0 012.311-.496c2.802 0 4.948 2.473 4.948 6.026 0 3.752-2.199 6.31-5.318 6.31zm-.497-10.26a3.12 3.12 0 00-2.118.978 3.068 3.068 0 00-.832 2.165v1.97a2.882 2.882 0 00.77 2.153 2.918 2.918 0 002.106.929c1.998 0 3.172-1.666 3.172-4.192 0-2.526-1.174-4.004-3.098-4.004zm10.86-1.856V28.5c0 1.929-.074 3.323-.18 5l.053.052c.613-1.247 1.226-2.39 1.85-3.637l2.95-5.607h3.447v11.854h-2.464v-4.193c0-1.75.095-3.51.201-5.292h-.201a32.816 32.816 0 01-1.67 3.563c-1.005 1.929-1.998 3.878-3.098 5.932h-3.447V24.308h2.559zm12.464 4.926h1.237c1.798 0 2.823-.734 2.823-1.687 0-.954-.877-1.604-2.357-1.604a6.224 6.224 0 00-2.781.797l-.687-1.709a8.515 8.515 0 014.102-.974c2.199 0 4.557.786 4.557 3.196a2.883 2.883 0 01-.82 1.741c-.465.47-1.079.77-1.739.848v.105c1.554.22 3.172 1.142 3.172 2.85 0 2.81-3.056 3.658-5.466 3.658a8.798 8.798 0 01-4.134-.943l.687-1.74c.98.508 2.066.785 3.172.807 1.797 0 2.802-.776 2.802-1.824 0-1.393-1.396-1.834-3.246-1.834h-1.258l-.064-1.687zm14.938 7.19c-3.499 0-5.762-2.578-5.762-6.09 0-3.668 2.315-6.288 5.963-6.288 3.436 0 5.752 2.474 5.752 6.079 0 3.605-2.39 6.299-5.953 6.299zm.095-10.48c-1.913 0-3.172 1.78-3.172 4.275s1.259 4.192 3.172 4.192c1.914 0 3.172-1.897 3.172-4.265 0-2.369-1.3-4.161-3.172-4.161v-.042zm8.345-1.542a30.081 30.081 0 014.081-.272c1.946 0 5.393.251 5.393 3.05a2.663 2.663 0 01-.723 1.705 2.705 2.705 0 01-1.667.831v.073c1.745.294 2.908 1.206 2.908 2.883 0 3.343-4.177 3.636-6.513 3.636-1.311 0-2.686-.073-3.521-.146l.042-11.76zm2.591 4.738h1.353c1.671 0 3.024-.399 3.024-1.593 0-1.195-.878-1.562-2.802-1.562a12.91 12.91 0 00-1.575.105v3.05zm0 5.24a12.52 12.52 0 001.596.105c1.48 0 3.172-.325 3.172-1.855 0-1.373-1.322-1.814-3.362-1.814h-1.406v3.564zm16.547 1.782l-.19-1.363h-.074a4.1 4.1 0 01-1.545 1.246 4.134 4.134 0 01-1.955.379 3.485 3.485 0 01-2.588-.956 3.442 3.442 0 01-1.07-2.524c0-2.935 2.559-4.444 6.989-4.444v-.22c0-1.561-.846-2.337-2.495-2.337a5.692 5.692 0 00-3.119.87l-.54-1.73a7.699 7.699 0 014.103-1.047c3.171 0 4.704 1.634 4.704 4.904v4.37c-.017.947.04 1.893.17 2.83l-2.39.022zm-.37-5.901c-2.95 0-4.419.702-4.419 2.39a1.66 1.66 0 00.085.726 1.694 1.694 0 001.004 1.023c.232.088.481.124.729.106a2.56 2.56 0 001.817-.696 2.517 2.517 0 00.784-1.767V30.26zm8.464-5.953v4.654h4.959v-4.654h2.664v11.854h-2.664v-5.167h-4.99v5.125h-2.665V24.308h2.696zm13.56 0v4.654h5v-4.654h2.654v11.854h-2.654v-5.167h-5v5.125h-2.654V24.308h2.654zm13.605 0v3.846a17.28 17.28 0 011.998-.167c2.58 0 5.234.933 5.234 4.024a3.48 3.48 0 01-1.375 2.924 8.417 8.417 0 01-5.117 1.352 50.3 50.3 0 01-3.394-.146V24.308h2.654zm0 9.83c.482.086.97.128 1.459.127 1.449 0 3.172-.44 3.172-2.17s-1.819-2.148-3.172-2.148a6.705 6.705 0 00-1.406.146l-.053 4.046zm11.524-9.872h-2.664v11.896h2.664V24.266zm5.717.042V28.5c0 1.929-.074 3.323-.169 5v.052c.613-1.247 1.227-2.39 1.84-3.637l2.95-5.607h3.51v11.854h-2.506V31.97c0-1.75.095-3.511.19-5.293h-.116a33.005 33.005 0 01-1.67 3.563c-1.058 1.929-1.999 3.878-3.109 5.932h-3.447V24.308h2.527zm1.385-4.79c0 1.101.561 1.667 1.375 1.667s1.427-.566 1.448-1.666h1.702a2.897 2.897 0 01-.93 2.164 2.953 2.953 0 01-2.241.77 2.813 2.813 0 01-2.22-.762 2.762 2.762 0 01-.846-2.172h1.712zM90.122 54.628a5.402 5.402 0 00-2.316-.482c-2.336 0-3.785 1.73-3.785 4.098a3.68 3.68 0 00.975 2.873c.357.384.792.688 1.276.894a3.772 3.772 0 001.534.3c.842 0 1.675-.164 2.453-.483l.37 1.97a7.554 7.554 0 01-3.299.62c-3.668 0-5.973-2.39-5.973-6.059a5.98 5.98 0 01.413-2.473c.312-.787.786-1.5 1.393-2.093a6.086 6.086 0 012.132-1.349 6.126 6.126 0 012.5-.373 6.978 6.978 0 012.887.555l-.56 2.002zm12.516 4.245h-7.972a3.392 3.392 0 001.063 2.632 3.452 3.452 0 002.701.931 8.964 8.964 0 003.172-.566l.423 1.824a9.997 9.997 0 01-4.018.734c-3.732 0-5.952-2.337-5.952-5.974s2.262-6.362 5.667-6.362c3.045 0 4.969 2.243 4.969 5.628a5.49 5.49 0 01-.053 1.153zm-2.432-1.876c0-1.834-.93-3.144-2.632-3.144A3.182 3.182 0 0095.5 54.86a3.13 3.13 0 00-.834 2.136h5.54zm11.125 7.441a3.716 3.716 0 01-1.938-.375 3.677 3.677 0 01-1.466-1.312v6.288h-2.696V56.221c0-1.268 0-2.567-.106-3.909h2.337l.148 1.876a4.424 4.424 0 011.727-1.6 4.465 4.465 0 012.311-.496c2.802 0 4.938 2.463 4.938 6.026.106 3.763-2.136 6.32-5.255 6.32zm-.497-10.27a3.121 3.121 0 00-2.118.978 3.068 3.068 0 00-.832 2.165v1.981a2.884 2.884 0 00.771 2.15 2.906 2.906 0 002.105.921c1.998 0 3.172-1.656 3.172-4.192 0-2.316-1.174-4.004-3.098-4.004zm8.321-1.751a28.339 28.339 0 014.081-.273c1.945 0 5.392.242 5.392 3.05a2.693 2.693 0 01-.742 1.708 2.736 2.736 0 01-1.679.829v.073c1.723.293 2.928 1.247 2.928 2.882 0 3.333-4.229 3.626-6.523 3.626-1.3 0-2.675-.073-3.51-.146l.053-11.749zm2.558 4.78h1.322c1.67 0 3.024-.389 3.024-1.584 0-1.194-.857-1.561-2.77-1.561a12.77 12.77 0 00-1.576.094v3.05zm0 5.24c.53.066 1.063.097 1.597.094 1.48 0 3.172-.315 3.172-1.855 0-1.363-1.332-1.803-3.373-1.803h-1.396v3.563zm12.496-10.125v4.193c0 1.917-.074 3.311-.179 4.999.613-1.237 1.226-2.39 1.85-3.627l3.013-5.565h3.447v11.854h-2.516v-4.192c0-1.761.105-3.511.2-5.24h-.126a31.91 31.91 0 01-1.671 3.563c-1.057 1.928-1.988 3.878-3.098 5.921h-3.446V52.312h2.526zm19.483 2.316a5.402 5.402 0 00-2.315-.482c-2.337 0-3.785 1.73-3.785 4.098a3.707 3.707 0 002.251 3.767 3.771 3.771 0 001.534.3 6.464 6.464 0 002.41-.483l.37 1.97a7.55 7.55 0 01-3.298.619c-3.658 0-5.974-2.39-5.974-6.058a5.988 5.988 0 011.81-4.57 6.096 6.096 0 014.64-1.718 6.954 6.954 0 012.875.555l-.518 2.002zm5.34-2.316v4.664h4.99v-4.664h2.664v11.854h-2.664V59.05h-4.99v5.115h-2.665V52.312h2.665zm13.555 0v3.836c.659-.094 1.323-.15 1.988-.168 2.59 0 5.286.923 5.286 4.025a3.49 3.49 0 01-.329 1.627 3.532 3.532 0 01-1.045 1.297 8.516 8.516 0 01-5.117 1.342 50.96 50.96 0 01-3.405-.147V52.312h2.622zm0 9.883c.479.081.964.12 1.449.116 1.448 0 3.172-.43 3.172-2.17s-1.819-2.148-3.172-2.148a6.094 6.094 0 00-1.406.157l-.043 4.045zm11.514-9.883h-2.654v11.854h2.654V52.312zm5.786 0v4.192c0 1.918-.074 3.312-.18 5h.053c.613-1.237 1.237-2.39 1.85-3.627l2.95-5.617h3.447v11.906h-2.517v-4.193c0-1.76.106-3.51.201-5.24h-.127a31.793 31.793 0 01-1.691 3.511c-1.058 1.928-1.988 3.878-3.098 5.922h-3.447V52.312h2.559zm1.374-4.779c0 1.048.561 1.656 1.375 1.656s1.427-.556 1.459-1.656h1.691a2.887 2.887 0 01-.93 2.16 2.924 2.924 0 01-2.242.764 2.812 2.812 0 01-2.222-.755 2.756 2.756 0 01-.854-2.17h1.723zm18.467 4.779v9.737h4.874v-9.737h2.654v9.883h1.332l-.148 5.838h-1.914l-.127-3.91h-9.325v-11.81h2.654zm20.896 6.561h-7.972a3.4 3.4 0 001.063 2.632 3.451 3.451 0 002.701.931 9.008 9.008 0 003.225-.566l.423 1.824a9.998 9.998 0 01-4.018.734c-3.732 0-5.952-2.337-5.952-5.974s2.262-6.362 5.656-6.362c3.056 0 4.98 2.243 4.98 5.628.006.387-.03.773-.106 1.153zm-2.432-1.876c0-1.834-.941-3.144-2.632-3.144a3.182 3.182 0 00-2.074 1.008 3.132 3.132 0 00-.834 2.136h5.54zm7.622-4.685v4.664h5.001v-4.664h2.654v11.854h-2.654V59.05h-5.001v5.115h-2.654V52.312h2.654zm19.463 0v2.096h-3.647v9.705h-2.601v-9.652h-3.627v-2.096l9.875-.053zm8.088 12.126a3.695 3.695 0 01-1.934-.374 3.662 3.662 0 01-1.46-1.313h-.053v6.288h-2.611V56.221c0-1.268 0-2.567-.095-3.909h2.336l.148 1.876h.053a4.4 4.4 0 011.72-1.603c.71-.37 1.508-.54 2.308-.493 2.813 0 4.948 2.463 4.948 6.026-.042 3.763-2.231 6.32-5.36 6.32zm-.486-10.27a3.118 3.118 0 00-2.125.975 3.069 3.069 0 00-.836 2.168v1.981a2.86 2.86 0 00.774 2.154 2.92 2.92 0 002.113.917c1.987 0 3.171-1.656 3.171-4.192 0-2.316-1.184-4.004-3.097-4.004z" fill="#fff"/></svg>