<svg width="40" height="40" viewBox="0 0 40 40" fill="none" xmlns="http://www.w3.org/2000/svg"><path d="M26 4H14C8.478 4 4 8.478 4 14v12c0 5.522 4.478 10 10 10h12c5.522 0 10-4.478 10-10V14c0-5.522-4.478-10-10-10zm6.4 22c0 3.86-2.54 6-6.4 6H14c-3.86 0-6-2.14-6-6V14c0-3.86 2.14-6 6-6h12c3.86 0 6.4 2.14 6.4 6v12z" fill="#fff" stroke="#4A4A4A" stroke-width="2"/><path d="M20 12a8 8 0 100 16 8 8 0 000-16zm0 12a4 4 0 110-8 4 4 0 010 8z" fill="#fff" stroke="#4A4A4A" stroke-width="2"/><path d="M28.6 12.8a1.4 1.4 0 100-2.8 1.4 1.4 0 000 2.8z" fill="#fff"/></svg>