<svg width="175" height="57" viewBox="0 0 175 57" fill="none" xmlns="http://www.w3.org/2000/svg"><path d="M7.946 16.018a7.946 7.946 0 100-15.891 7.946 7.946 0 000 15.891zm0 40.982a7.946 7.946 0 100-15.891 7.946 7.946 0 000 15.891z" fill="#D3D3D3"/><path d="M7.946 36.498a7.946 7.946 0 100-15.892 7.946 7.946 0 000 15.892zm20.492-20.481a7.946 7.946 0 100-15.892 7.946 7.946 0 000 15.892z" fill="#000"/><path d="M48.919 16.017a7.946 7.946 0 100-15.892 7.946 7.946 0 000 15.892zm0 40.983a7.946 7.946 0 100-15.892 7.946 7.946 0 000 15.892z" fill="#D3D3D3"/><path d="M48.917 20.606a7.922 7.922 0 00-5.749 2.465 6.538 6.538 0 01-9.068-.09l-.075-.075-.112-.113a7.943 7.943 0 00-11.09 11.374h-.01a6.543 6.543 0 010 9.254h.014a7.947 7.947 0 1011.24.021 6.54 6.54 0 01-.084-9.213l.01-.008v.011a6.548 6.548 0 019.285-.091 7.944 7.944 0 105.639-13.54v.005zm32.089 3.977a8.092 8.092 0 01-4.139-1.065 7.842 7.842 0 01-2.9-2.9 8.167 8.167 0 01-1.064-4.169 8.28 8.28 0 011.032-4.138 7.651 7.651 0 016.834-3.964 7.44 7.44 0 013.528.831 7.061 7.061 0 012.53 2.2V1.137a1.09 1.09 0 01.322-.832 1.243 1.243 0 011.633 0 1.096 1.096 0 01.32.832v15.43a8.409 8.409 0 01-1.11 4.094 7.807 7.807 0 01-2.886 2.871 8.055 8.055 0 01-4.1 1.05zm0-2.041a5.707 5.707 0 003.017-.802 5.844 5.844 0 002.1-2.162 6.26 6.26 0 00.771-3.12 6.27 6.27 0 00-.772-3.104 5.699 5.699 0 00-2.099-2.163 5.905 5.905 0 00-8.15 2.162 6.178 6.178 0 00-.787 3.104 6.155 6.155 0 00.787 3.12A5.932 5.932 0 0078 21.74c.909.54 1.95.817 3.006.802zm20.9 2.041a8.241 8.241 0 01-4.168-1.05 7.632 7.632 0 01-2.886-2.886 8.242 8.242 0 01-1.05-4.168 8.316 8.316 0 011.05-4.198 7.616 7.616 0 012.886-2.885 8.773 8.773 0 018.316 0 7.628 7.628 0 012.871 2.885 8.532 8.532 0 011.08 4.198 8.147 8.147 0 01-1.065 4.168 7.755 7.755 0 01-2.886 2.886 8.156 8.156 0 01-4.148 1.05zm0-2.041a5.889 5.889 0 003.032-.787 5.606 5.606 0 002.098-2.162 6.34 6.34 0 00.752-3.114 6.41 6.41 0 00-.759-3.134 5.569 5.569 0 00-2.097-2.162 6.227 6.227 0 00-6.065 0 5.656 5.656 0 00-2.112 2.162c-.524.96-.79 2.04-.772 3.134a6.23 6.23 0 00.772 3.119 5.707 5.707 0 002.112 2.162c.924.53 1.974.801 3.039.782zm20.006 2.041a7.857 7.857 0 01-4.095-1.065 7.713 7.713 0 01-2.828-2.9 8.278 8.278 0 01-1.034-4.139 8.613 8.613 0 01.986-4.168 7.561 7.561 0 012.711-2.901 7.381 7.381 0 013.964-1.063 7.68 7.68 0 013.279.699 7.43 7.43 0 012.643 2.1.802.802 0 01.234.744 1.161 1.161 0 01-.499.685.896.896 0 01-.715.167 1.167 1.167 0 01-.682-.431 5.425 5.425 0 00-4.255-1.925 5.226 5.226 0 00-2.871.789 5.291 5.291 0 00-1.924 2.162 6.955 6.955 0 00-.686 3.149 6.54 6.54 0 00.729 3.119 5.453 5.453 0 002.041 2.162 5.729 5.729 0 002.994.787 6.735 6.735 0 002.084-.306 4.691 4.691 0 001.685-.955c.203-.181.458-.294.729-.321a.96.96 0 01.7.233c.217.185.357.445.392.728a.791.791 0 01-.276.7c-1.42 1.301-3.189 1.951-5.306 1.95zm9.972-14.343a1.018 1.018 0 01-.729-.278.906.906 0 01-.291-.685.937.937 0 01.291-.714 1.017 1.017 0 01.729-.278h7.433a1.017 1.017 0 01.729.278.954.954 0 01.291.714.906.906 0 01-.291.685 1.028 1.028 0 01-.729.278h-7.433zm7.258 14.196a5.173 5.173 0 01-4.657-2.724 5.925 5.925 0 01-.7-2.901V1.166c-.01-.302.1-.596.306-.817a1.057 1.057 0 01.795-.316 1.097 1.097 0 011.138 1.133v17.645c0 .991.291 1.802.875 2.433a2.903 2.903 0 002.243.949h.787a.977.977 0 01.759.32c.198.225.302.517.291.816a1.025 1.025 0 01-.35.801 1.277 1.277 0 01-.874.306h-.613zm13.026.147a8.246 8.246 0 01-4.169-1.05 7.639 7.639 0 01-2.886-2.886 8.267 8.267 0 01-1.049-4.168 8.337 8.337 0 011.049-4.198 7.62 7.62 0 012.886-2.885 8.773 8.773 0 018.317 0 7.635 7.635 0 012.871 2.885 8.542 8.542 0 011.08 4.198 8.147 8.147 0 01-1.065 4.168 7.762 7.762 0 01-2.886 2.886 8.16 8.16 0 01-4.148 1.05zm0-2.041a5.889 5.889 0 003.032-.787 5.613 5.613 0 002.098-2.162 6.34 6.34 0 00.758-3.119 6.421 6.421 0 00-.758-3.134 5.571 5.571 0 00-2.098-2.162 6.222 6.222 0 00-6.063 0 5.652 5.652 0 00-2.114 2.162c-.524.96-.79 2.04-.772 3.134a6.224 6.224 0 00.772 3.119 5.694 5.694 0 002.114 2.162 5.88 5.88 0 003.031.787zm13.504 1.894a1.015 1.015 0 01-1.055-.666 1.017 1.017 0 01-.053-.442V9.6a1.113 1.113 0 01.665-1.092 1.11 1.11 0 011.549 1.092v13.73a1.015 1.015 0 01-.666 1.053 1.01 1.01 0 01-.44.054zm-.177-9.824c.04-1.14.366-2.253.948-3.235a6.37 6.37 0 012.244-2.244 5.947 5.947 0 013.076-.815c.894 0 1.583.127 2.069.38.486.252.67.622.554 1.107a.858.858 0 01-.393.582 1.21 1.21 0 01-.665.117 96.428 96.428 0 00-.89-.058 6.487 6.487 0 00-2.899.332 4.398 4.398 0 00-2.013 1.473 3.825 3.825 0 00-.743 2.36l-1.288.001zm-86.187 34.51a10.376 10.376 0 01-3.41-.582 6.413 6.413 0 01-2.741-1.75.935.935 0 01-.261-.787c.042-.3.199-.571.437-.758a1.164 1.164 0 011.577.146 4.48 4.48 0 001.851 1.255c.817.3 1.68.448 2.55.437 1.442 0 2.481-.248 3.12-.744.637-.495.97-1.093.997-1.793 0-.7-.333-1.279-.998-1.735-.665-.455-1.755-.809-3.268-1.06-1.963-.31-3.4-.854-4.314-1.633-.912-.778-1.369-1.701-1.37-2.77 0-.988.262-1.814.787-2.476a4.771 4.771 0 012.099-1.487 8.13 8.13 0 012.886-.499c1.303 0 2.425.222 3.366.665a6.154 6.154 0 012.29 1.809 1.027 1.027 0 01.232.786.948.948 0 01-.466.666 1.176 1.176 0 01-.801.131 1.306 1.306 0 01-.774-.422 4.44 4.44 0 00-1.69-1.24 5.812 5.812 0 00-2.215-.394c-1.07 0-1.924.222-2.565.666-.641.443-.962.992-.962 1.646-.01.418.119.827.364 1.165.242.332.666.622 1.253.875.805.307 1.642.522 2.495.64 1.458.233 2.61.578 3.455 1.035.845.456 1.448.99 1.808 1.603a3.88 3.88 0 01.539 1.996 3.815 3.815 0 01-.802 2.405 5.273 5.273 0 01-2.216 1.619 8.462 8.462 0 01-3.253.585zm12.01-.144a1.13 1.13 0 01-.831-.306 1.087 1.087 0 01-.306-.802v-13.7a1.134 1.134 0 01.306-.815 1.093 1.093 0 01.831-.321 1.058 1.058 0 011.036.698c.053.14.077.289.072.438v13.7a1.05 1.05 0 01-1.108 1.108zm10.232 0c-.302.01-.596-.1-.817-.306a1.053 1.053 0 01-.319-.802v-8.395c0-1.38-.36-2.474-1.08-3.28a3.545 3.545 0 00-2.77-1.21c-1.204 0-2.194.394-2.972 1.182-.777.787-1.165 1.812-1.164 3.075h-1.609c.016-1.153.3-2.287.832-3.311a5.786 5.786 0 012.114-2.261 6.073 6.073 0 016.078 0 5.555 5.555 0 012.069 2.304c.496.991.744 2.156.744 3.493v8.395a1.051 1.051 0 01-1.108 1.108l.002.008zm10.173 0c-.302.01-.596-.1-.817-.306a1.067 1.067 0 01-.319-.802v-8.395c0-1.38-.36-2.474-1.08-3.28a3.54 3.54 0 00-2.769-1.21c-1.205 0-2.19.404-2.958 1.21-.767.806-1.14 1.882-1.119 3.229h-2.011a7.248 7.248 0 01.845-3.44 5.824 5.824 0 012.244-2.304 6.411 6.411 0 013.237-.815 5.695 5.695 0 013.045.815 5.555 5.555 0 012.069 2.304c.496.991.744 2.155.744 3.493v8.395a1.05 1.05 0 01-1.108 1.108l-.003-.002zm13.571.144a7.693 7.693 0 01-4.024-1.063 7.767 7.767 0 01-2.812-2.9 8.268 8.268 0 01-1.035-4.139 8.147 8.147 0 011.065-4.168 7.812 7.812 0 012.899-2.901 8.55 8.55 0 018.265 0 7.877 7.877 0 012.886 2.9 8.388 8.388 0 011.093 4.17l-.905.698a7.36 7.36 0 01-.976 3.776 7.239 7.239 0 01-2.652 2.651 7.409 7.409 0 01-3.804.976zm.233-2.039a5.795 5.795 0 003.017-.788 5.693 5.693 0 002.098-2.171 6.66 6.66 0 000-6.224 5.837 5.837 0 00-2.098-2.171 6.052 6.052 0 00-6.019 0 5.906 5.906 0 00-2.128 2.17 6.541 6.541 0 000 6.225 5.767 5.767 0 005.13 2.96zm6.966 1.895a1.135 1.135 0 01-.815-.306 1.05 1.05 0 01-.321-.802v-4.99l.547-2.292 1.72.437v6.85a1.06 1.06 0 01-.321.802 1.14 1.14 0 01-.81.3zm7.038 0a1.013 1.013 0 01-1.108-1.108V34.14a1.113 1.113 0 01.669-1.08 1.113 1.113 0 011.244.257 1.105 1.105 0 01.302.824V47.87a1.006 1.006 0 01-.667 1.054c-.141.05-.291.069-.44.054zm-.175-9.824c.04-1.14.365-2.253.946-3.235a6.387 6.387 0 012.246-2.246 5.94 5.94 0 013.076-.815c.893 0 1.583.126 2.069.378.486.253.665.623.554 1.108a.863.863 0 01-.395.583 1.21 1.21 0 01-.665.117l-.888-.058a6.51 6.51 0 00-2.901.332c-.798.288-1.496.8-2.009 1.474a3.824 3.824 0 00-.744 2.362h-1.289zm12.121-4.204a1.014 1.014 0 01-.728-.276.909.909 0 01-.291-.685.94.94 0 01.291-.715 1.02 1.02 0 01.728-.276h7.434c.27-.008.531.091.728.276a.948.948 0 01.291.715.905.905 0 01-.291.685 1.01 1.01 0 01-.728.276h-7.434zm7.257 14.028a5.165 5.165 0 01-4.657-2.727 5.89 5.89 0 01-.7-2.9V28.847a1.129 1.129 0 01.306-.815 1.05 1.05 0 01.802-.321 1.094 1.094 0 011.136 1.136V43.35c0 .992.291 1.804.875 2.436a2.912 2.912 0 002.243.946h.789a.982.982 0 01.757.321c.198.225.303.517.291.817a1.025 1.025 0 01-.349.802 1.286 1.286 0 01-.875.306h-.618z" fill="#000"/></svg>