<svg width="25" height="36" viewBox="0 0 25 36" fill="none" xmlns="http://www.w3.org/2000/svg">
<path d="M10.9587 0.624954L10.9567 0.626877L1.99246 9.40156C1.14424 10.2356 1.1474 11.5847 1.99986 12.4149C2.85221 13.245 4.23084 13.2418 5.07917 12.4077L10.3226 7.29143L10.3226 32.8693C10.3226 34.0461 11.2974 35 12.5 35C13.7026 35 14.6774 34.0461 14.6774 32.8693L14.6774 7.29154L19.9137 12.4006C20.762 13.2347 22.1406 13.2379 22.993 12.4077C23.8455 11.5775 23.8485 10.2284 23.0004 9.39442L14.0434 0.62677L14.0413 0.624847C13.1901 -0.209633 11.807 -0.20697 10.9587 0.624954Z" fill="white" stroke="#4A4A4A" stroke-width="2"/>
</svg>
