<svg width="221" height="57" viewBox="0 0 221 57" fill="none" xmlns="http://www.w3.org/2000/svg">
<path d="M45.6883 40.0625C44.8045 42.7886 43.5279 45.3753 41.8978 47.7432C39.6132 51.0289 37.2507 54.306 33.5208 54.3743C29.791 54.4425 28.6833 52.2237 24.5034 52.2237C20.3235 52.2237 18.9995 54.2975 15.5379 54.434C11.9378 54.5706 9.19453 50.8838 6.88393 47.6067C2.19348 40.9073 -1.39791 28.6522 3.42234 20.4253C4.5525 18.4265 6.19011 16.7518 8.17452 15.5653C10.1589 14.3789 12.422 13.7215 14.7417 13.6577C18.2812 13.5979 21.613 16.0046 23.7765 16.0046C25.9399 16.0046 29.9813 13.103 34.2477 13.5297C36.2209 13.5996 38.1509 14.1191 39.8865 15.0474C41.6221 15.9758 43.1162 17.2877 44.2517 18.8806C43.9921 19.0428 38.2718 22.2943 38.3411 29.1216C38.3479 31.4505 39.0478 33.7262 40.3538 35.6665C41.6599 37.6068 43.5147 39.1264 45.6883 40.0368V40.0625ZM31.4266 9.10043C33.5042 6.71933 34.5376 3.62191 34.2997 0.489441C31.1793 0.782262 28.292 2.24562 26.2342 4.57731C24.4601 6.59138 22.9111 9.82584 23.3351 12.9152C26.4073 13.1542 29.5486 11.3791 31.4266 9.10043Z" fill="black"/>
<path d="M78.5484 29.4459H76.2378L74.9657 25.5117H70.5522L69.3493 29.4459H67.0906L71.4608 16.0558H74.1609L78.5484 29.4459ZM74.5849 23.8646L73.4339 20.3655C73.3128 20.0071 73.0964 19.1708 72.7503 17.848C72.6118 18.4198 72.4128 19.2561 72.1099 20.3655L70.9849 23.8646H74.5849Z" fill="black"/>
<path d="M80.3655 19.8705C81.4725 19.721 82.5886 19.6468 83.7059 19.6487C85.2983 19.6487 88.1195 19.8535 88.1195 22.1321C88.0943 22.649 87.8839 23.1403 87.5257 23.5185C87.1676 23.8968 86.6849 24.1373 86.1637 24.1974V24.2571C87.5916 24.4961 88.5435 25.2385 88.5435 26.604C88.5435 29.3264 85.0819 29.5654 83.204 29.5654C82.1396 29.5654 81.0146 29.5056 80.3309 29.4459L80.3655 19.8705ZM82.4857 23.728H83.5934C84.9608 23.728 86.0685 23.4037 86.0685 22.4308C86.0685 21.4579 85.3415 21.1592 83.7752 21.1592C83.344 21.1615 82.9134 21.19 82.4857 21.2445V23.728ZM82.4857 27.9951C82.919 28.0516 83.3555 28.0801 83.7925 28.0804C85.004 28.0804 86.3887 27.8159 86.3887 26.5699C86.3887 25.4519 85.2983 25.0935 83.628 25.0935H82.4857V27.9951Z" fill="black"/>
<path d="M97.6205 19.7938V21.5006H94.6002V29.4118H92.4713V21.5347H89.5117V19.8279L97.6205 19.7938Z" fill="black"/>
<path d="M103.299 29.6592C100.444 29.6592 98.583 27.5598 98.583 24.7008C98.583 21.7139 100.478 19.5803 103.464 19.5803C106.285 19.5803 108.172 21.5944 108.172 24.5301C108.172 27.4659 106.224 29.6592 103.299 29.6592ZM103.377 21.125C101.811 21.125 100.781 22.5758 100.781 24.607C100.781 26.6381 101.811 28.0206 103.377 28.0206C104.944 28.0206 105.974 26.4759 105.974 24.5472C105.974 22.6185 104.909 21.1591 103.377 21.1591V21.125Z" fill="black"/>
<path d="M115.239 29.6593C114.694 29.7037 114.147 29.6 113.657 29.3592C113.167 29.1185 112.754 28.75 112.461 28.2938V33.4143H110.289V22.9685C110.289 21.9359 110.289 20.8862 110.203 19.7938H112.124L112.236 21.3214C112.58 20.7694 113.069 20.3194 113.651 20.0189C114.233 19.7185 114.886 19.5788 115.542 19.6146C117.835 19.6146 119.592 21.6286 119.592 24.5217C119.592 27.577 117.792 29.6593 115.239 29.6593ZM114.833 21.3043C114.171 21.3375 113.549 21.6234 113.099 22.1015C112.648 22.5795 112.404 23.2119 112.418 23.8646V25.469C112.397 25.7882 112.442 26.1082 112.55 26.4097C112.659 26.7111 112.828 26.9876 113.048 27.2224C113.268 27.4572 113.535 27.6452 113.831 27.7752C114.128 27.9051 114.448 27.9741 114.772 27.9781C116.408 27.9781 117.368 26.6211 117.368 24.5644C117.368 22.5077 116.408 21.3043 114.833 21.3043Z" fill="black"/>
<path d="M123.721 19.7938V23.2074C123.721 24.7777 123.661 25.9128 123.574 27.2782L123.618 27.3209C124.12 26.3053 124.621 25.3751 125.132 24.3595L127.547 19.7938H130.368V29.4459H128.351V26.0322C128.351 24.607 128.429 23.1733 128.516 21.7225H128.351C127.955 22.7157 127.498 23.6846 126.984 24.6241C126.162 26.1944 125.348 27.7818 124.448 29.4545H121.627V19.7938H123.721Z" fill="black"/>
<path d="M133.924 23.8048H134.936C136.408 23.8048 137.247 23.2074 137.247 22.4308C137.247 21.6542 136.529 21.1251 135.317 21.1251C134.517 21.1607 133.737 21.383 133.041 21.7737L132.479 20.3826C133.512 19.8426 134.667 19.5696 135.836 19.5889C137.636 19.5889 139.566 20.229 139.566 22.1918C139.513 22.7259 139.276 23.226 138.895 23.6093C138.515 23.9927 138.012 24.2363 137.472 24.2998V24.3851C138.744 24.5643 140.068 25.3154 140.068 26.7064C140.068 28.9936 137.567 29.6849 135.594 29.6849C134.419 29.707 133.257 29.4432 132.21 28.9168L132.773 27.5001C133.575 27.914 134.464 28.139 135.369 28.1572C136.84 28.1572 137.662 27.5257 137.662 26.6723C137.662 25.5372 136.52 25.1788 135.006 25.1788H133.976L133.924 23.8048Z" fill="black"/>
<path d="M146.151 29.6593C143.286 29.6593 141.434 27.5599 141.434 24.701C141.434 21.714 143.329 19.5804 146.315 19.5804C149.128 19.5804 151.023 21.5945 151.023 24.5303C151.023 27.466 149.067 29.6593 146.151 29.6593ZM146.229 21.1251C144.662 21.1251 143.632 22.5759 143.632 24.6071C143.632 26.6382 144.662 28.0208 146.229 28.0208C147.795 28.0208 148.825 26.4761 148.825 24.5473C148.825 22.6186 147.76 21.1593 146.229 21.1593V21.1251Z" fill="black"/>
<path d="M153.059 19.8705C154.166 19.7212 155.282 19.6471 156.4 19.6486C157.992 19.6486 160.813 19.8535 160.813 22.1321C160.79 22.6495 160.58 23.1418 160.221 23.5204C159.863 23.8989 159.379 24.139 158.857 24.1974V24.2571C160.285 24.4961 161.237 25.2385 161.237 26.604C161.237 29.3264 157.819 29.5654 155.906 29.5654C154.833 29.5654 153.708 29.5056 153.025 29.4459L153.059 19.8705ZM155.179 23.728H156.287C157.654 23.728 158.762 23.4037 158.762 22.4308C158.762 21.4579 158.044 21.1592 156.469 21.1592C156.038 21.1615 155.607 21.19 155.179 21.2445V23.728ZM155.179 27.9951C155.613 28.0513 156.049 28.0798 156.486 28.0804C157.698 28.0804 159.082 27.8159 159.082 26.5699C159.082 25.4519 158.001 25.0934 156.33 25.0934H155.179V27.9951Z" fill="black"/>
<path d="M168.724 29.4458L168.568 28.3364H168.507C168.177 28.772 167.743 29.1205 167.243 29.3512C166.743 29.582 166.194 29.6877 165.643 29.6592C165.255 29.679 164.866 29.6202 164.502 29.4864C164.138 29.3526 163.805 29.1466 163.524 28.8811C163.244 28.6157 163.022 28.2964 162.871 27.9429C162.72 27.5894 162.645 27.2092 162.649 26.8258C162.649 24.4363 164.743 23.2073 168.369 23.2073V23.0281C168.369 21.7565 167.677 21.125 166.327 21.125C165.424 21.1106 164.536 21.3568 163.774 21.8333L163.332 20.4252C164.348 19.8345 165.512 19.5386 166.69 19.5718C169.286 19.5718 170.541 20.9031 170.541 23.5658V27.1245C170.527 27.895 170.573 28.6653 170.68 29.4288L168.724 29.4458ZM168.421 24.6411C166.006 24.6411 164.804 25.2129 164.804 26.5869C164.783 26.7866 164.807 26.9884 164.873 27.1781C164.94 27.3678 165.048 27.5407 165.19 27.6847C165.332 27.8287 165.504 27.9403 165.695 28.0116C165.885 28.0829 166.089 28.1122 166.292 28.0974C166.566 28.1042 166.838 28.0577 167.093 27.9605C167.348 27.8632 167.581 27.7173 167.779 27.5309C167.977 27.3446 168.135 27.1215 168.246 26.8746C168.356 26.6276 168.415 26.3616 168.421 26.0919V24.6411Z" fill="black"/>
<path d="M175.349 19.7938V23.5829H179.408V19.7938H181.589V29.4459H179.408V25.2386H175.323V29.4118H173.142V19.7938H175.349Z" fill="black"/>
<path d="M186.448 19.7938V23.5829H190.541V19.7938H192.713V29.4459H190.541V25.2386H186.448V29.4118H184.275V19.7938H186.448Z" fill="black"/>
<path d="M197.584 19.7937V22.9257C198.126 22.8488 198.672 22.8032 199.219 22.7892C201.331 22.7892 203.503 23.5487 203.503 26.0663C203.523 26.523 203.431 26.9778 203.235 27.3922C203.04 27.8066 202.746 28.1685 202.378 28.4473C201.14 29.2521 199.67 29.6384 198.19 29.5482C197.324 29.5482 196.217 29.4885 195.412 29.4288V19.7937H197.584ZM197.584 27.7987C197.978 27.8682 198.378 27.9024 198.778 27.9011C199.964 27.9011 201.374 27.5427 201.374 26.1346C201.374 24.7264 199.886 24.385 198.778 24.385C198.391 24.3846 198.005 24.4246 197.627 24.5045L197.584 27.7987ZM207.017 19.7595H204.836V29.4458H207.017V19.7595Z" fill="black"/>
<path d="M211.696 19.7937V23.2074C211.696 24.7777 211.636 25.9127 211.558 27.2782V27.3209C212.06 26.3053 212.562 25.3751 213.064 24.3595L215.478 19.7937H218.351V29.4459H216.3V26.0322C216.3 24.607 216.378 23.1733 216.456 21.7225H216.361C215.964 22.7156 215.507 23.6846 214.993 24.6241C214.128 26.1944 213.358 27.7817 212.449 29.4544H209.628V19.7937H211.696ZM212.83 15.8936C212.83 16.7897 213.289 17.2506 213.955 17.2506C214.621 17.2506 215.123 16.7897 215.141 15.8936H216.534C216.539 16.2234 216.473 16.5506 216.342 16.854C216.211 17.1575 216.017 17.4305 215.773 17.6556C215.528 17.8807 215.238 18.0528 214.922 18.1609C214.606 18.2689 214.271 18.3106 213.938 18.2832C213.607 18.3161 213.274 18.2777 212.96 18.1705C212.646 18.0633 212.36 17.8899 212.121 17.6624C211.882 17.435 211.696 17.1589 211.577 16.8534C211.457 16.5479 211.406 16.2204 211.428 15.8936H212.83Z" fill="black"/>
<path d="M74.5846 44.4831C73.9904 44.2146 73.3429 44.0805 72.6894 44.0905C70.7768 44.0905 69.5912 45.4986 69.5912 47.4274C69.5498 47.8507 69.5994 48.2779 69.7369 48.681C69.8743 49.0841 70.0966 49.454 70.389 49.7666C70.6815 50.0792 71.0375 50.3273 71.4339 50.4948C71.8303 50.6623 72.2581 50.7454 72.6894 50.7386C73.3782 50.7389 74.0604 50.6055 74.6971 50.3461L75 51.9505C74.1501 52.3175 73.227 52.4896 72.2999 52.454C69.297 52.454 67.4104 50.5082 67.4104 47.5212C67.3789 46.8339 67.4942 46.1478 67.7489 45.5073C68.0036 44.8668 68.3921 44.2862 68.8891 43.8034C69.386 43.3205 69.9804 42.9461 70.6337 42.7045C71.2869 42.4628 71.9843 42.3593 72.6807 42.4007C73.492 42.383 74.2976 42.5372 75.0432 42.853L74.5846 44.4831Z" fill="black"/>
<path d="M84.8296 47.9394H78.3045C78.2854 48.3372 78.3532 48.7345 78.5032 49.1043C78.6532 49.4741 78.882 49.8078 79.174 50.0829C79.4661 50.358 79.8147 50.5681 80.1962 50.6988C80.5777 50.8296 80.9832 50.8781 81.3853 50.841C82.272 50.8446 83.1518 50.6885 83.9815 50.3802L84.3277 51.8651C83.2854 52.2872 82.1655 52.4906 81.0392 52.4625C77.9843 52.4625 76.167 50.5594 76.167 47.598C76.167 44.6367 78.0189 42.4178 80.8055 42.4178C83.2979 42.4178 84.8729 44.2441 84.8729 47.0006C84.8919 47.3142 84.8774 47.6288 84.8296 47.9394ZM82.8392 46.4118C82.8392 44.9183 82.0776 43.8515 80.6844 43.8515C80.034 43.9052 79.4279 44.1984 78.9869 44.6728C78.5459 45.1473 78.3022 45.7682 78.3045 46.4118H82.8392Z" fill="black"/>
<path d="M91.9451 52.4711C91.3979 52.5134 90.8493 52.4078 90.3583 52.1658C89.8674 51.9237 89.4526 51.5542 89.1586 51.0971V56.2176H86.9518V45.7803C86.9518 44.7476 86.9518 43.6894 86.8653 42.597H88.7778L88.899 44.1247C89.2421 43.572 89.7307 43.1215 90.3128 42.8209C90.8949 42.5204 91.5488 42.3811 92.2048 42.4178C94.4981 42.4178 96.2462 44.4233 96.2462 47.325C96.3327 50.3887 94.4981 52.4711 91.9451 52.4711ZM91.5384 44.1076C90.8773 44.1407 90.2553 44.4267 89.8045 44.9047C89.3537 45.3827 89.1096 46.0152 89.124 46.6678V48.2808C89.1027 48.5995 89.1477 48.9192 89.2562 49.2202C89.3646 49.5211 89.5342 49.7971 89.7545 50.0312C89.9749 50.2653 90.2414 50.4526 90.5377 50.5816C90.834 50.7105 91.1539 50.7785 91.4778 50.7813C93.1134 50.7813 94.074 49.4329 94.074 47.3676C94.074 45.4816 93.1134 44.1076 91.5384 44.1076Z" fill="black"/>
<path d="M98.349 42.6824C99.4556 42.5285 100.572 42.4543 101.689 42.4605C103.282 42.4605 106.103 42.6568 106.103 44.9439C106.074 45.4637 105.858 45.9563 105.495 46.3343C105.133 46.7124 104.646 46.9515 104.121 47.0092V47.069C105.532 47.3079 106.518 48.0845 106.518 49.4159C106.518 52.1297 103.057 52.3687 101.179 52.3687C100.114 52.3687 98.9894 52.3089 98.3058 52.2492L98.349 42.6824ZM100.443 46.574H101.525C102.892 46.574 104 46.2582 104 45.2853C104 44.3124 103.299 44.0137 101.733 44.0137C101.302 44.0128 100.871 44.0384 100.443 44.0905V46.574ZM100.443 50.8411C100.877 50.8949 101.313 50.9206 101.75 50.9179C102.962 50.9179 104.346 50.6618 104.346 49.4073C104.346 48.2979 103.256 47.9394 101.586 47.9394H100.443V50.8411Z" fill="black"/>
<path d="M110.671 42.5972V46.0108C110.671 47.5726 110.611 48.7076 110.524 50.0817C111.026 49.0746 111.528 48.1359 112.039 47.1288L114.505 42.5972H117.326V52.2493H115.267V48.8357C115.267 47.4019 115.353 45.9767 115.431 44.5686H115.327C114.932 45.5626 114.476 46.5316 113.96 47.4702C113.094 49.0405 112.333 50.6278 111.424 52.292H108.603V42.5972H110.671Z" fill="black"/>
<path d="M126.618 44.483C126.024 44.2146 125.377 44.0804 124.723 44.0904C122.811 44.0904 121.625 45.4986 121.625 47.4273C121.584 47.8506 121.633 48.2778 121.771 48.6809C121.908 49.084 122.13 49.4539 122.423 49.7665C122.715 50.0791 123.071 50.3272 123.468 50.4947C123.864 50.6622 124.292 50.7453 124.723 50.7385C125.4 50.7343 126.07 50.601 126.696 50.346L126.999 51.9504C126.149 52.3174 125.226 52.4895 124.299 52.4539C121.305 52.4539 119.41 50.5081 119.41 47.5212C119.378 46.8331 119.494 46.1462 119.749 45.505C120.004 44.8639 120.393 44.2829 120.891 43.8C121.389 43.317 121.985 42.9427 122.639 42.7017C123.293 42.4606 123.992 42.358 124.689 42.4006C125.497 42.3836 126.3 42.5378 127.043 42.853L126.618 44.483Z" fill="black"/>
<path d="M130.989 42.5972V46.3949H135.074V42.5972H137.254V52.2493H135.074V48.0846H130.989V52.2493H128.808V42.5972H130.989Z" fill="black"/>
<path d="M142.085 42.5971V45.7206C142.624 45.644 143.167 45.5985 143.712 45.5841C145.832 45.5841 148.039 46.3351 148.039 48.8612C148.057 49.3178 147.964 49.7721 147.769 50.1862C147.573 50.6004 147.28 50.9625 146.914 51.2422C145.672 52.0389 144.204 52.4218 142.725 52.3346C141.86 52.3346 140.752 52.2749 139.938 52.2151V42.5971H142.085ZM142.085 50.6448C142.476 50.7107 142.873 50.7421 143.27 50.7387C144.456 50.7387 145.866 50.3888 145.866 48.9721C145.866 47.5555 144.378 47.2226 143.27 47.2226C142.883 47.2207 142.496 47.2636 142.119 47.3506L142.085 50.6448ZM151.509 42.5971H149.337V52.2493H151.509V42.5971Z" fill="black"/>
<path d="M156.244 42.597V46.0106C156.244 47.5724 156.184 48.7074 156.097 50.0815H156.14C156.642 49.0744 157.153 48.1357 157.655 47.1286L160.069 42.5543H162.891V52.2491H160.831V48.8355C160.831 47.4017 160.917 45.9765 160.995 44.5684H160.891C160.489 45.5482 160.027 46.503 159.507 47.4273C158.641 48.9976 157.88 50.585 156.971 52.2491H154.15V42.597H156.244ZM157.369 38.7054C157.369 39.5588 157.828 40.0538 158.494 40.0538C159.161 40.0538 159.663 39.6015 159.689 38.7054H161.073C161.078 39.0349 161.013 39.3617 160.882 39.6647C160.75 39.9678 160.556 40.2403 160.312 40.4647C160.067 40.6892 159.777 40.8604 159.461 40.9675C159.145 41.0746 158.81 41.1151 158.477 41.0864C158.147 41.1206 157.813 41.0833 157.499 40.9771C157.184 40.871 156.898 40.6986 156.658 40.472C156.418 40.2453 156.231 39.9698 156.111 39.6647C155.99 39.3596 155.938 39.0323 155.959 38.7054H157.369Z" fill="black"/>
<path d="M172.485 42.5971V50.5254H176.474V42.5971H178.646V50.6448H179.737L179.616 55.3984H178.049L177.945 52.2151H170.313V42.5971H172.485Z" fill="black"/>
<path d="M189.589 47.9394H183.064C183.044 48.3372 183.112 48.7345 183.262 49.1043C183.412 49.4741 183.641 49.8078 183.933 50.0829C184.225 50.358 184.574 50.5681 184.955 50.6988C185.337 50.8296 185.742 50.8781 186.144 50.841C187.045 50.8491 187.94 50.6929 188.784 50.3802L189.13 51.8651C188.088 52.2872 186.968 52.4906 185.842 52.4625C182.787 52.4625 180.969 50.5594 180.969 47.598C180.969 44.6367 182.821 42.4178 185.599 42.4178C188.1 42.4178 189.675 44.2441 189.675 47.0006C189.68 47.3157 189.651 47.6304 189.589 47.9394ZM187.598 46.4118C187.598 44.9183 186.828 43.8515 185.443 43.8515C184.793 43.9052 184.187 44.1984 183.746 44.6728C183.305 45.1473 183.061 45.7682 183.064 46.4118H187.598Z" fill="black"/>
<path d="M193.837 42.5971V46.3948H197.93V42.5971H200.102V52.2493H197.93V48.0846H193.837V52.2493H191.664V42.5971H193.837Z" fill="black"/>
<path d="M209.768 42.5971V44.3039H206.782V52.2066H204.653V44.3466H201.685V42.6398L209.768 42.5971Z" fill="black"/>
<path d="M216.388 52.471C215.842 52.5136 215.294 52.4081 214.805 52.166C214.315 51.9238 213.902 51.5541 213.61 51.097H213.567V56.2175H211.429V45.7802C211.429 44.7476 211.429 43.6893 211.351 42.597H213.264L213.385 44.1246H213.428C213.768 43.5714 214.255 43.1201 214.836 42.8194C215.417 42.5186 216.07 42.3798 216.725 42.4178C219.027 42.4178 220.775 44.4233 220.775 47.3249C220.741 50.3887 218.949 52.471 216.388 52.471ZM215.99 44.1075C215.327 44.1385 214.703 44.4235 214.25 44.9018C213.798 45.38 213.552 46.0137 213.567 46.6678V48.2807C213.545 48.6002 213.591 48.9205 213.7 49.2221C213.808 49.5236 213.979 49.8 214.2 50.0343C214.421 50.2685 214.689 50.4556 214.986 50.584C215.284 50.7125 215.604 50.7796 215.929 50.7813C217.556 50.7813 218.525 49.4329 218.525 47.3676C218.525 45.4815 217.556 44.1075 215.99 44.1075Z" fill="black"/>
</svg>
