<svg width="269" height="70" viewBox="0 0 269 70" fill="none" xmlns="http://www.w3.org/2000/svg">
<path d="M54.8183 49.1995C53.7385 52.5474 52.1789 55.724 50.1874 58.632C47.3962 62.667 44.5099 66.6916 39.953 66.7754C35.3962 66.8593 34.0429 64.1343 28.9363 64.1343C23.8296 64.1343 22.212 66.6811 17.9829 66.8488C13.5847 67.0165 10.2331 62.4889 7.41023 58.4643C1.67982 50.2371 -2.70786 35.187 3.18114 25.0837C4.56188 22.6291 6.56257 20.5723 8.98697 19.1153C11.4114 17.6583 14.1762 16.851 17.0103 16.7726C21.3345 16.6992 25.405 19.6548 28.0482 19.6548C30.6913 19.6548 35.6288 16.0914 40.8411 16.6154C43.2518 16.7013 45.6097 17.3393 47.7301 18.4793C49.8505 19.6194 51.6758 21.2306 53.0632 23.1867C52.746 23.3858 45.7575 27.3789 45.842 35.7634C45.8504 38.6234 46.7054 41.4181 48.3011 43.8009C49.8967 46.1837 52.1627 48.0499 54.8183 49.1681V49.1995ZM37.3944 11.176C39.9327 8.25181 41.1953 4.44797 40.9046 0.601074C37.0923 0.960679 33.5649 2.75778 31.0508 5.62127C28.8834 8.09469 26.9909 12.0668 27.509 15.8608C31.2623 16.1542 35.1002 13.9743 37.3944 11.176Z" fill="white"/>
<path d="M94.964 36.1615H92.141L90.5869 31.33H85.1948L83.7252 36.1615H80.9657L86.3049 19.7175H89.6036L94.964 36.1615ZM90.1217 29.3073L88.7155 25.0102C88.5675 24.57 88.3032 23.5429 87.8802 21.9185C87.7111 22.6206 87.4679 23.6477 87.0979 25.0102L85.7234 29.3073H90.1217Z" fill="white"/>
<path d="M97.1839 24.4024C98.5363 24.2187 99.8999 24.1277 101.265 24.1299C103.21 24.1299 106.657 24.3815 106.657 27.1798C106.626 27.8146 106.369 28.4179 105.932 28.8824C105.494 29.3469 104.904 29.6423 104.268 29.7161V29.7894C106.012 30.0829 107.175 30.9947 107.175 32.6716C107.175 36.0149 102.946 36.3084 100.652 36.3084C99.3513 36.3084 97.9768 36.235 97.1416 36.1616L97.1839 24.4024ZM99.7742 29.1396H101.128C102.798 29.1396 104.151 28.7414 104.151 27.5466C104.151 26.3518 103.263 25.985 101.35 25.985C100.823 25.9878 100.297 26.0228 99.7742 26.0898V29.1396ZM99.7742 34.3799C100.303 34.4493 100.837 34.4843 101.371 34.4847C102.851 34.4847 104.542 34.1598 104.542 32.6297C104.542 31.2567 103.21 30.8165 101.17 30.8165H99.7742V34.3799Z" fill="white"/>
<path d="M118.265 24.3081V26.4042H114.575V36.1197H111.974V26.4461H108.358V24.35L118.265 24.3081Z" fill="white"/>
<path d="M125.203 36.4235C121.714 36.4235 119.441 33.8452 119.441 30.3342C119.441 26.666 121.756 24.0459 125.404 24.0459C128.851 24.0459 131.155 26.5193 131.155 30.1246C131.155 33.7299 128.777 36.4235 125.203 36.4235ZM125.298 25.9429C123.385 25.9429 122.126 27.7246 122.126 30.219C122.126 32.7133 123.385 34.4112 125.298 34.4112C127.212 34.4112 128.47 32.5142 128.47 30.1456C128.47 27.777 127.17 25.9848 125.298 25.9848V25.9429Z" fill="white"/>
<path d="M139.79 36.4237C139.124 36.4783 138.455 36.3508 137.857 36.0552C137.258 35.7596 136.753 35.307 136.396 34.7468V41.0351H133.742V28.2069C133.742 26.9388 133.742 25.6497 133.637 24.3081H135.984L136.121 26.1842C136.541 25.5063 137.138 24.9536 137.849 24.5846C138.56 24.2157 139.359 24.0441 140.16 24.088C142.962 24.088 145.108 26.5615 145.108 30.1144C145.108 33.8664 142.909 36.4237 139.79 36.4237ZM139.293 26.1632C138.485 26.2039 137.726 26.5551 137.175 27.1421C136.624 27.7292 136.326 28.5059 136.343 29.3074V31.2777C136.317 31.6696 136.372 32.0627 136.505 32.4329C136.637 32.8031 136.844 33.1427 137.113 33.431C137.382 33.7193 137.708 33.9503 138.07 34.1098C138.432 34.2694 138.823 34.3542 139.219 34.359C141.217 34.359 142.391 32.6926 142.391 30.1668C142.391 27.641 141.217 26.1632 139.293 26.1632Z" fill="white"/>
<path d="M150.153 24.3081V28.5003C150.153 30.4288 150.079 31.8227 149.973 33.4996L150.026 33.552C150.639 32.3048 151.252 31.1624 151.876 29.9152L154.826 24.3081H158.273V36.1616H155.809V31.9694C155.809 30.2191 155.904 28.4584 156.01 26.6767H155.809C155.324 27.8964 154.767 29.0863 154.139 30.2401C153.134 32.1685 152.141 34.1179 151.041 36.1721H147.594V24.3081H150.153Z" fill="white"/>
<path d="M162.617 29.234H163.854C165.652 29.234 166.677 28.5004 166.677 27.5466C166.677 26.5929 165.8 25.9431 164.32 25.9431C163.342 25.9869 162.389 26.2598 161.539 26.7396L160.852 25.0313C162.114 24.3682 163.525 24.0328 164.954 24.0566C167.153 24.0566 169.511 24.8426 169.511 27.2532C169.446 27.9091 169.156 28.5232 168.691 28.994C168.226 29.4647 167.612 29.7639 166.952 29.8419V29.9467C168.506 30.1668 170.124 31.0891 170.124 32.7974C170.124 35.6062 167.068 36.4551 164.658 36.4551C163.223 36.4823 161.803 36.1583 160.524 35.5119L161.211 33.7721C162.191 34.2804 163.277 34.5567 164.383 34.5791C166.18 34.5791 167.185 33.8035 167.185 32.7555C167.185 31.3616 165.789 30.9214 163.939 30.9214H162.681L162.617 29.234Z" fill="white"/>
<path d="M177.555 36.4237C174.056 36.4237 171.793 33.8455 171.793 30.3345C171.793 26.6663 174.108 24.0461 177.756 24.0461C181.192 24.0461 183.508 26.5196 183.508 30.1249C183.508 33.7302 181.118 36.4237 177.555 36.4237ZM177.65 25.9431C175.737 25.9431 174.478 27.7248 174.478 30.2192C174.478 32.7136 175.737 34.4114 177.65 34.4114C179.564 34.4114 180.822 32.5144 180.822 30.1458C180.822 27.7772 179.522 25.985 177.65 25.985V25.9431Z" fill="white"/>
<path d="M185.995 24.4024C187.348 24.2191 188.711 24.128 190.076 24.1299C192.022 24.1299 195.469 24.3814 195.469 27.1798C195.44 27.8152 195.184 28.4197 194.746 28.8846C194.308 29.3495 193.717 29.6443 193.079 29.7161V29.7894C194.824 30.0829 195.987 30.9947 195.987 32.6716C195.987 36.0149 191.81 36.3083 189.474 36.3083C188.163 36.3083 186.788 36.235 185.953 36.1616L185.995 24.4024ZM188.586 29.1396H189.939C191.61 29.1396 192.963 28.7414 192.963 27.5466C192.963 26.3518 192.085 25.985 190.161 25.985C189.634 25.9878 189.108 26.0228 188.586 26.0898V29.1396ZM188.586 34.3799C189.115 34.449 189.648 34.484 190.182 34.4847C191.662 34.4847 193.354 34.1598 193.354 32.6297C193.354 31.2567 192.032 30.8165 189.992 30.8165H188.586V34.3799Z" fill="white"/>
<path d="M205.133 36.1616L204.943 34.7991H204.869C204.465 35.334 203.934 35.7621 203.324 36.0454C202.714 36.3287 202.042 36.4586 201.369 36.4236C200.895 36.4479 200.421 36.3757 199.975 36.2114C199.53 36.0471 199.124 35.7941 198.781 35.4681C198.438 35.1421 198.167 34.7499 197.983 34.3158C197.799 33.8817 197.706 33.4149 197.711 32.944C197.711 30.0095 200.27 28.5003 204.7 28.5003V28.2802C204.7 26.7186 203.854 25.943 202.205 25.943C201.102 25.9253 200.017 26.2277 199.086 26.8129L198.546 25.0836C199.787 24.3581 201.209 23.9948 202.649 24.0356C205.82 24.0356 207.353 25.6705 207.353 28.9405V33.3109C207.336 34.257 207.393 35.2031 207.523 36.1406L205.133 36.1616ZM204.763 30.261C201.813 30.261 200.344 30.9632 200.344 32.6506C200.318 32.8959 200.347 33.1437 200.429 33.3766C200.511 33.6096 200.643 33.8219 200.816 33.9988C200.99 34.1756 201.2 34.3127 201.433 34.4002C201.665 34.4878 201.914 34.5238 202.162 34.5056C202.496 34.514 202.829 34.4568 203.141 34.3374C203.452 34.2181 203.737 34.0388 203.979 33.8099C204.221 33.5811 204.414 33.3071 204.549 33.0039C204.683 32.7006 204.756 32.374 204.763 32.0427V30.261Z" fill="white"/>
<path d="M213.227 24.3081V28.9615H218.186V24.3081H220.85V36.1616H218.186V30.9947H213.196V36.1197H210.531V24.3081H213.227Z" fill="white"/>
<path d="M226.787 24.3081V28.9615H231.787V24.3081H234.441V36.1616H231.787V30.9947H226.787V36.1197H224.133V24.3081H226.787Z" fill="white"/>
<path d="M240.392 24.308V28.1544C241.054 28.0599 241.721 28.0039 242.39 27.9867C244.97 27.9867 247.624 28.9195 247.624 32.0113C247.648 32.5722 247.536 33.1307 247.297 33.6396C247.057 34.1485 246.698 34.5929 246.249 34.9353C244.736 35.9236 242.941 36.3981 241.132 36.2873C240.075 36.2873 238.722 36.214 237.738 36.1406V24.308H240.392ZM240.392 34.1388C240.874 34.2241 241.362 34.2662 241.851 34.2646C243.3 34.2646 245.023 33.8244 245.023 32.0951C245.023 30.3658 243.204 29.9466 241.851 29.9466C241.378 29.946 240.907 29.9952 240.445 30.0933L240.392 34.1388ZM251.916 24.2661H249.252V36.1616H251.916V24.2661Z" fill="white"/>
<path d="M257.633 24.3082V28.5004C257.633 30.4288 257.559 31.8227 257.464 33.4996V33.552C258.077 32.3049 258.691 31.1625 259.304 29.9153L262.254 24.3082H265.764V36.1617H263.258V31.9695C263.258 30.2192 263.353 28.4585 263.448 26.6768H263.332C262.847 27.8965 262.289 29.0864 261.662 30.2402C260.604 32.1686 259.663 34.118 258.553 36.1722H255.106V24.3082H257.633ZM259.018 19.5186C259.018 20.619 259.579 21.185 260.393 21.185C261.207 21.185 261.82 20.619 261.841 19.5186H263.543C263.549 19.9236 263.47 20.3254 263.309 20.698C263.149 21.0707 262.912 21.406 262.613 21.6824C262.315 21.9588 261.961 22.1701 261.575 22.3029C261.189 22.4356 260.779 22.4868 260.372 22.4531C259.968 22.4936 259.56 22.4464 259.177 22.3147C258.794 22.183 258.444 21.9701 258.152 21.6908C257.86 21.4114 257.633 21.0724 257.487 20.6972C257.341 20.3221 257.279 19.9199 257.306 19.5186H259.018Z" fill="white"/>
<path d="M90.1216 54.6282C89.3956 54.2986 88.6046 54.1339 87.8062 54.1461C85.4696 54.1461 84.0211 55.8754 84.0211 58.244C83.9705 58.7639 84.0311 59.2885 84.1991 59.7836C84.367 60.2786 84.6385 60.7329 84.9958 61.1168C85.3531 61.5006 85.7881 61.8054 86.2724 62.0111C86.7567 62.2168 87.2794 62.3188 87.8062 62.3105C88.6478 62.3108 89.4812 62.147 90.259 61.8284L90.6291 63.7987C89.5908 64.2494 88.463 64.4608 87.3304 64.4171C83.6617 64.4171 81.3568 62.0275 81.3568 58.3593C81.3182 57.5153 81.4591 56.6726 81.7703 55.886C82.0815 55.0994 82.5561 54.3865 83.1633 53.7935C83.7705 53.2005 84.4966 52.7408 85.2947 52.444C86.0927 52.1472 86.9448 52.0201 87.7956 52.071C88.7867 52.0492 89.771 52.2386 90.6819 52.6264L90.1216 54.6282Z" fill="white"/>
<path d="M102.638 58.873H94.6661C94.6428 59.3616 94.7256 59.8494 94.9088 60.3036C95.0921 60.7577 95.3716 61.1676 95.7285 61.5054C96.0853 61.8432 96.5112 62.1012 96.9772 62.2618C97.4433 62.4224 97.9388 62.4819 98.43 62.4364C99.5133 62.4408 100.588 62.249 101.602 61.8704L102.025 63.694C100.751 64.2123 99.3832 64.4622 98.0071 64.4277C94.275 64.4277 92.0547 62.0905 92.0547 58.4537C92.0547 54.817 94.3172 52.092 97.7217 52.092C100.767 52.092 102.691 54.3349 102.691 57.7201C102.714 58.1052 102.696 58.4916 102.638 58.873ZM100.206 56.9969C100.206 55.1628 99.2759 53.8528 97.5736 53.8528C96.7791 53.9186 96.0386 54.2788 95.4998 54.8614C94.961 55.4441 94.6634 56.2065 94.6661 56.9969H100.206Z" fill="white"/>
<path d="M111.331 64.4382C110.663 64.4901 109.992 64.3605 109.393 64.0632C108.793 63.7659 108.286 63.3122 107.927 62.7508V69.0391H105.231V56.2214C105.231 54.9532 105.231 53.6536 105.125 52.3121H107.462L107.61 54.1882C108.029 53.5095 108.626 52.9562 109.337 52.5871C110.048 52.218 110.847 52.0469 111.648 52.092C114.45 52.092 116.586 54.555 116.586 58.1184C116.692 61.8809 114.45 64.4382 111.331 64.4382ZM110.834 54.1672C110.027 54.2079 109.267 54.5591 108.716 55.1461C108.165 55.7332 107.867 56.5099 107.884 57.3114V59.2922C107.859 59.6836 107.914 60.0762 108.046 60.4458C108.178 60.8154 108.386 61.1544 108.655 61.4418C108.924 61.7293 109.25 61.9593 109.612 62.1177C109.974 62.2761 110.365 62.3596 110.76 62.363C112.758 62.363 113.932 60.7071 113.932 58.1708C113.932 55.8546 112.758 54.1672 110.834 54.1672Z" fill="white"/>
<path d="M119.155 52.417C120.507 52.228 121.871 52.1369 123.236 52.1445C125.181 52.1445 128.628 52.3855 128.628 55.1943C128.592 55.8326 128.329 56.4375 127.886 56.9018C127.443 57.3661 126.848 57.6598 126.207 57.7306V57.804C127.93 58.0974 129.135 59.0512 129.135 60.6861C129.135 64.019 124.906 64.3124 122.612 64.3124C121.312 64.3124 119.937 64.2391 119.102 64.1657L119.155 52.417ZM121.713 57.1961H123.035C124.705 57.1961 126.059 56.8083 126.059 55.6135C126.059 54.4188 125.202 54.0519 123.289 54.0519C122.762 54.0508 122.236 54.0823 121.713 54.1463V57.1961ZM121.713 62.4364C122.243 62.5025 122.776 62.5341 123.31 62.5307C124.79 62.5307 126.482 62.2163 126.482 60.6757C126.482 59.3132 125.15 58.873 123.109 58.873H121.713V62.4364Z" fill="white"/>
<path d="M134.209 52.3123V56.5045C134.209 58.4224 134.135 59.8164 134.03 61.5037C134.643 60.267 135.256 59.1142 135.88 57.8774L138.893 52.3123H142.34V64.1658H139.824V59.9736C139.824 58.2128 139.929 56.4626 140.024 54.7333H139.898C139.415 55.954 138.857 57.144 138.227 58.2967C137.17 60.2251 136.239 62.1745 135.129 64.2182H131.683V52.3123H134.209Z" fill="white"/>
<path d="M153.692 54.6281C152.966 54.2985 152.175 54.1338 151.377 54.146C149.04 54.146 147.592 55.8753 147.592 58.2439C147.541 58.7638 147.602 59.2884 147.77 59.7835C147.938 60.2785 148.209 60.7328 148.566 61.1167C148.924 61.5005 149.359 61.8053 149.843 62.011C150.327 62.2167 150.85 62.3187 151.377 62.3104C152.204 62.3052 153.023 62.1415 153.787 61.8283L154.157 63.7986C153.119 64.2493 151.991 64.4608 150.859 64.417C147.201 64.417 144.885 62.0274 144.885 58.3592C144.846 57.5142 144.988 56.6706 145.299 55.8833C145.611 55.0959 146.087 54.3825 146.695 53.7893C147.304 53.1962 148.031 52.7366 148.83 52.4405C149.63 52.1445 150.483 52.0185 151.335 52.0709C152.322 52.05 153.303 52.2394 154.21 52.6264L153.692 54.6281Z" fill="white"/>
<path d="M159.032 52.3123V56.9761H164.022V52.3123H166.686V64.1658H164.022V59.0513H159.032V64.1658H156.367V52.3123H159.032Z" fill="white"/>
<path d="M172.587 52.3123V56.1481C173.246 56.0541 173.91 55.9981 174.575 55.9805C177.165 55.9805 179.861 56.9028 179.861 60.005C179.884 60.5657 179.771 61.1236 179.532 61.6322C179.293 62.1409 178.934 62.5855 178.487 62.9291C176.97 63.9074 175.176 64.3776 173.37 64.2706C172.312 64.2706 170.959 64.1972 169.965 64.1239V52.3123H172.587ZM172.587 62.1954C173.066 62.2763 173.551 62.3149 174.036 62.3107C175.484 62.3107 177.208 61.881 177.208 60.1413C177.208 58.4015 175.389 57.9927 174.036 57.9927C173.563 57.9903 173.091 58.0431 172.63 58.1499L172.587 62.1954ZM184.101 52.3123H181.447V64.1658H184.101V52.3123Z" fill="white"/>
<path d="M189.887 52.3121V56.5043C189.887 58.4223 189.813 59.8162 189.707 61.5036H189.76C190.373 60.2669 190.997 59.114 191.61 57.8773L194.56 52.2597H198.007V64.1656H195.49V59.9734C195.49 58.2127 195.596 56.4624 195.691 54.7331H195.564C195.073 55.9365 194.508 57.109 193.873 58.2441C192.815 60.1725 191.885 62.1219 190.775 64.1656H187.328V52.3121H189.887ZM191.261 47.533C191.261 48.581 191.822 49.1889 192.636 49.1889C193.45 49.1889 194.063 48.6334 194.095 47.533H195.786C195.792 47.9376 195.713 48.339 195.552 48.7111C195.392 49.0833 195.155 49.418 194.856 49.6936C194.557 49.9692 194.203 50.1795 193.817 50.311C193.431 50.4425 193.021 50.4923 192.614 50.457C192.211 50.499 191.803 50.4532 191.419 50.3228C191.035 50.1925 190.685 49.9808 190.392 49.7025C190.099 49.4241 189.871 49.0858 189.723 48.7111C189.576 48.3364 189.513 47.9344 189.538 47.533H191.261Z" fill="white"/>
<path d="M209.728 52.3123V62.0487H214.602V52.3123H217.256V62.1954H218.588L218.44 68.0331H216.526L216.399 64.1239H207.074V52.3123H209.728Z" fill="white"/>
<path d="M230.624 58.873H222.652C222.629 59.3616 222.712 59.8494 222.895 60.3036C223.078 60.7577 223.358 61.1676 223.715 61.5054C224.072 61.8432 224.497 62.1012 224.963 62.2618C225.43 62.4224 225.925 62.4819 226.416 62.4364C227.517 62.4463 228.61 62.2544 229.641 61.8704L230.064 63.694C228.79 64.2123 227.422 64.4622 226.046 64.4277C222.314 64.4277 220.094 62.0905 220.094 58.4537C220.094 54.817 222.356 52.092 225.75 52.092C228.806 52.092 230.73 54.3349 230.73 57.7201C230.736 58.107 230.7 58.4934 230.624 58.873ZM228.192 56.9969C228.192 55.1628 227.251 53.8528 225.56 53.8528C224.765 53.9186 224.025 54.2788 223.486 54.8614C222.947 55.4441 222.65 56.2065 222.652 56.9969H228.192Z" fill="white"/>
<path d="M235.814 52.3123V56.9761H240.815V52.3123H243.469V64.1658H240.815V59.0513H235.814V64.1658H233.16V52.3123H235.814Z" fill="white"/>
<path d="M255.277 52.3123V54.4084H251.63V64.1134H249.029V54.4608H245.402V52.3647L255.277 52.3123Z" fill="white"/>
<path d="M263.365 64.4381C262.698 64.4905 262.029 64.3609 261.431 64.0635C260.833 63.7661 260.328 63.3121 259.971 62.7508H259.918V69.0391H257.307V56.2214C257.307 54.9532 257.307 53.6536 257.212 52.3121H259.548L259.696 54.1881H259.749C260.165 53.5087 260.76 52.9546 261.469 52.5852C262.179 52.2159 262.977 52.0454 263.777 52.092C266.59 52.092 268.725 54.5549 268.725 58.1183C268.683 61.8809 266.494 64.4381 263.365 64.4381ZM262.879 54.1672C262.069 54.2052 261.307 54.5552 260.754 55.1426C260.201 55.7299 259.901 56.5081 259.918 57.3113V59.2922C259.892 59.6845 259.948 60.0779 260.081 60.4482C260.214 60.8185 260.422 61.158 260.692 61.4456C260.963 61.7332 261.29 61.963 261.653 62.1208C262.016 62.2785 262.408 62.361 262.805 62.363C264.792 62.363 265.976 60.707 265.976 58.1707C265.976 55.8545 264.792 54.1672 262.879 54.1672Z" fill="white"/>
</svg>
