<svg width="35" height="35" viewBox="0 0 35 35" fill="none" xmlns="http://www.w3.org/2000/svg">
<path d="M12.2499 3.75H22.7499C27.4436 3.75 31.2499 7.55632 31.2499 12.25V22.75C31.2499 27.4437 27.4436 31.25 22.7499 31.25H12.2499C7.5562 31.25 3.74988 27.4437 3.74988 22.75V12.25C3.74988 7.55632 7.5562 3.75 12.2499 3.75ZM22.7499 28.25C24.4831 28.25 25.9493 27.7692 26.9848 26.8264C28.0235 25.8806 28.5999 24.4961 28.5999 22.75V12.25C28.5999 10.5039 28.0235 9.11937 26.9848 8.17358C25.9493 7.23077 24.4831 6.75 22.7499 6.75H12.2499C10.516 6.75 9.13186 7.23134 8.18154 8.18166C7.23122 9.13198 6.74988 10.5162 6.74988 12.25V22.75C6.74988 24.4838 7.23122 25.868 8.18154 26.8183C9.13186 27.7687 10.516 28.25 12.2499 28.25H22.7499Z" fill="#373737" stroke="white" stroke-width="0.5"/>
<path d="M10.7499 17.5C10.7499 13.7723 13.7723 10.75 17.4999 10.75C21.2276 10.75 24.2499 13.7723 24.2499 17.5C24.2499 21.2277 21.2276 24.25 17.4999 24.25C13.7723 24.25 10.7499 21.2277 10.7499 17.5ZM13.7499 17.5C13.7499 19.5711 15.4289 21.25 17.4999 21.25C19.571 21.25 21.2499 19.5711 21.2499 17.5C21.2499 15.4289 19.571 13.75 17.4999 13.75C15.4289 13.75 13.7499 15.4289 13.7499 17.5Z" fill="#373737" stroke="white" stroke-width="0.5"/>
<path d="M25.0248 11.1999C25.7013 11.1999 26.2497 10.6515 26.2497 9.97497C26.2497 9.29844 25.7013 8.75 25.0248 8.75C24.3482 8.75 23.7998 9.29844 23.7998 9.97497C23.7998 10.6515 24.3482 11.1999 25.0248 11.1999Z" fill="#373737"/>
</svg>
