<svg width="40" height="40" viewBox="0 0 40 40" fill="none" xmlns="http://www.w3.org/2000/svg">
<path d="M26 4.00024H14C8.478 4.00024 4 8.47824 4 14.0002V26.0002C4 31.5222 8.478 36.0002 14 36.0002H26C31.522 36.0002 36 31.5222 36 26.0002V14.0002C36 8.47824 31.522 4.00024 26 4.00024ZM32.4 26.0002C32.4 29.8602 29.86 32.0002 26 32.0002H14C10.14 32.0002 8 29.8602 8 26.0002V14.0002C8 10.1402 10.14 8.00024 14 8.00024H26C29.86 8.00024 32.4 10.1402 32.4 14.0002V26.0002Z" fill="white" stroke="#4A4A4A" stroke-width="2"/>
<path d="M20 12C15.582 12 12 15.582 12 20C12 24.418 15.582 28 20 28C24.418 28 28 24.418 28 20C28 15.582 24.418 12 20 12ZM20 24C17.7909 24 16 22.2091 16 20C16 17.7909 17.7909 16 20 16C22.2091 16 24 17.7909 24 20C24 22.2091 22.2091 24 20 24Z" fill="white" stroke="#4A4A4A" stroke-width="2"/>
<path d="M28.5997 12.7999C29.3729 12.7999 29.9996 12.1731 29.9996 11.4C29.9996 10.6268 29.3729 10 28.5997 10C27.8265 10 27.1997 10.6268 27.1997 11.4C27.1997 12.1731 27.8265 12.7999 28.5997 12.7999Z" fill="white"/>
</svg>
