<svg width="175" height="57" viewBox="0 0 175 57" fill="none" xmlns="http://www.w3.org/2000/svg">
<path d="M7.94587 16.0182C12.3343 16.0182 15.8917 12.4607 15.8917 8.07234C15.8917 3.68395 12.3343 0.126465 7.94587 0.126465C3.55749 0.126465 0 3.68395 0 8.07234C0 12.4607 3.55749 16.0182 7.94587 16.0182Z" fill="#D3D3D3"/>
<path d="M7.94587 57.0001C12.3343 57.0001 15.8917 53.4427 15.8917 49.0543C15.8917 44.6659 12.3343 41.1084 7.94587 41.1084C3.55749 41.1084 0 44.6659 0 49.0543C0 53.4427 3.55749 57.0001 7.94587 57.0001Z" fill="#D3D3D3"/>
<path d="M7.94587 36.4975C12.3343 36.4975 15.8917 32.94 15.8917 28.5516C15.8917 24.1632 12.3343 20.6057 7.94587 20.6057C3.55749 20.6057 0 24.1632 0 28.5516C0 32.94 3.55749 36.4975 7.94587 36.4975Z" fill="black"/>
<path d="M28.4381 16.0167C32.8264 16.0167 36.3839 12.4593 36.3839 8.07087C36.3839 3.68249 32.8264 0.125 28.4381 0.125C24.0497 0.125 20.4922 3.68249 20.4922 8.07087C20.4922 12.4593 24.0497 16.0167 28.4381 16.0167Z" fill="black"/>
<path d="M48.9185 16.0167C53.3069 16.0167 56.8644 12.4593 56.8644 8.07087C56.8644 3.68249 53.3069 0.125 48.9185 0.125C44.5301 0.125 40.9727 3.68249 40.9727 8.07087C40.9727 12.4593 44.5301 16.0167 48.9185 16.0167Z" fill="#D3D3D3"/>
<path d="M48.9185 57.0001C53.3069 57.0001 56.8644 53.4427 56.8644 49.0543C56.8644 44.6659 53.3069 41.1084 48.9185 41.1084C44.5301 41.1084 40.9727 44.6659 40.9727 49.0543C40.9727 53.4427 44.5301 57.0001 48.9185 57.0001Z" fill="#D3D3D3"/>
<path d="M48.9169 20.606C47.8415 20.6052 46.7773 20.8233 45.7889 21.2471C44.8006 21.6709 43.909 22.2915 43.1683 23.0711C41.9384 24.2317 40.3068 24.8707 38.6159 24.8539C36.9249 24.8372 35.3063 24.166 34.0996 22.9813L34.0248 22.9064L33.9133 22.7933C32.405 21.3227 30.3743 20.5116 28.268 20.5382C26.1616 20.5649 24.1521 21.4272 22.6815 22.9355C21.2109 24.4438 20.3997 26.4745 20.4264 28.5809C20.4531 30.6873 21.3154 32.6968 22.8237 34.1674H22.8121C24.039 35.3945 24.7282 37.0587 24.7282 38.794C24.7282 40.5293 24.039 42.1935 22.8121 43.4206H22.827C21.714 44.5299 20.9548 45.9443 20.6455 47.4849C20.3362 49.0256 20.4906 50.6234 21.0893 52.0763C21.688 53.5292 22.7041 54.7719 24.009 55.6474C25.314 56.5229 26.8492 56.9918 28.4206 56.9948C29.992 56.9978 31.529 56.5348 32.8373 55.6644C34.1457 54.7939 35.1665 53.5551 35.7708 52.1045C36.3751 50.6539 36.5357 49.0568 36.2323 47.5149C35.9289 45.9731 35.1752 44.5558 34.0664 43.4423C32.8397 42.2282 32.1426 40.5785 32.127 38.8527C32.1114 37.1269 32.7786 35.4649 33.9832 34.2289L33.9932 34.2206V34.2322C34.5954 33.6142 35.314 33.1213 36.1074 32.7819C36.9009 32.4426 37.7537 32.2636 38.6166 32.255C39.4795 32.2465 40.3356 32.4088 41.1356 32.7324C41.9356 33.056 42.6637 33.5347 43.2781 34.1408C44.1992 35.0691 45.3352 35.7556 46.5854 36.1395C47.8355 36.5233 49.1611 36.5927 50.4445 36.3412C51.7278 36.0898 52.9293 35.5255 53.9422 34.6983C54.9551 33.8711 55.7481 32.8066 56.2509 31.5994C56.7537 30.3922 56.9506 29.0795 56.8243 27.7778C56.698 26.4762 56.2523 25.2259 55.5267 24.1378C54.8012 23.0498 53.8183 22.1577 52.6652 21.5407C51.5122 20.9237 50.2246 20.6009 48.9169 20.601V20.606Z" fill="black"/>
<path d="M81.0057 24.5829C79.5558 24.6052 78.1265 24.2376 76.8673 23.5183C75.6601 22.8259 74.6588 21.8246 73.9664 20.6174C73.246 19.3479 72.8789 17.9085 72.9035 16.449C72.88 15.0032 73.2355 13.5764 73.9348 12.3106C74.6056 11.0906 75.5966 10.0767 76.801 9.37825C78.0053 8.67978 79.3775 8.32315 80.7695 8.3468C81.9961 8.32895 83.2081 8.61466 84.2975 9.17848C85.3051 9.69777 86.1729 10.452 86.8275 11.3774V1.1378C86.8194 0.984384 86.8439 0.830998 86.8992 0.687678C86.9545 0.544359 87.0395 0.414336 87.1485 0.306119C87.3748 0.108744 87.665 0 87.9652 0C88.2655 0 88.5556 0.108744 88.7819 0.306119C88.8904 0.414666 88.9749 0.544784 89.0299 0.688051C89.0849 0.831317 89.1093 0.984539 89.1013 1.1378V16.5671C89.0876 18.0046 88.7056 19.4145 87.9918 20.6623C87.3007 21.8577 86.3048 22.8483 85.1059 23.5333C83.8572 24.2424 82.4416 24.6048 81.0057 24.5829ZM81.0057 22.5419C82.0665 22.5603 83.1114 22.2827 84.0231 21.7402C84.8998 21.2153 85.6236 20.4697 86.1222 19.5778C86.647 18.6227 86.913 17.547 86.894 16.4573C86.9094 15.3734 86.6434 14.304 86.1222 13.3535C85.6292 12.4574 84.9042 11.7105 84.0231 11.1911C83.348 10.79 82.5997 10.5276 81.8219 10.4192C81.0441 10.3109 80.2526 10.3588 79.4936 10.5601C78.7346 10.7615 78.0234 11.1123 77.4016 11.5919C76.7798 12.0716 76.26 12.6705 75.8726 13.3535C75.3421 14.301 75.0707 15.3716 75.0858 16.4573C75.0667 17.5489 75.3382 18.6258 75.8726 19.5778C76.3823 20.4708 77.1155 21.216 78 21.7402C78.9089 22.2793 79.9491 22.5568 81.0057 22.5419Z" fill="black"/>
<path d="M101.906 24.5828C100.448 24.6078 99.0098 24.2457 97.7377 23.5333C96.5315 22.8511 95.5339 21.8535 94.8517 20.6473C94.1393 19.3752 93.7772 17.9368 93.8022 16.4789C93.7754 15.0114 94.1375 13.5629 94.8517 12.2806C95.5335 11.0746 96.5313 10.0774 97.7377 9.39636C99.0157 8.70831 100.445 8.34814 101.896 8.34814C103.348 8.34814 104.776 8.70831 106.054 9.39636C107.255 10.0804 108.247 11.0772 108.925 12.2806C109.641 13.5639 110.012 15.0099 110.005 16.4789C110.03 17.9387 109.662 19.3783 108.94 20.6473C108.253 21.8495 107.257 22.8459 106.054 23.5333C104.79 24.2459 103.358 24.6082 101.906 24.5828ZM101.906 22.5419C102.969 22.5582 104.017 22.2863 104.938 21.7551C105.822 21.2391 106.547 20.4913 107.036 19.5928C107.549 18.6365 107.808 17.5642 107.788 16.4789C107.806 15.3868 107.545 14.3082 107.029 13.3452C106.542 12.4453 105.816 11.6971 104.932 11.1828C104.005 10.6658 102.961 10.3945 101.899 10.3945C100.838 10.3945 99.7941 10.6658 98.8671 11.1828C97.9798 11.6986 97.2495 12.4461 96.7546 13.3452C96.2305 14.3054 95.9646 15.3852 95.9828 16.4789C95.963 17.5681 96.2291 18.6435 96.7546 19.5977C97.2516 20.4953 97.9814 21.2423 98.8671 21.7601C99.7907 22.2909 100.841 22.5611 101.906 22.5419Z" fill="black"/>
<path d="M121.912 24.583C120.475 24.6092 119.059 24.241 117.817 23.5184C116.633 22.8207 115.656 21.8192 114.989 20.6175C114.289 19.3522 113.932 17.9253 113.955 16.4791C113.927 15.0287 114.267 13.595 114.941 12.3107C115.57 11.1196 116.506 10.1181 117.652 9.40979C118.846 8.68789 120.221 8.31934 121.616 8.3469C122.747 8.33546 123.867 8.57402 124.895 9.04551C125.925 9.53353 126.83 10.2524 127.538 11.1463C127.637 11.2401 127.71 11.3576 127.751 11.4877C127.792 11.6178 127.8 11.7562 127.772 11.8899C127.698 12.1729 127.52 12.4175 127.273 12.5752C127.172 12.6517 127.057 12.7061 126.933 12.7348C126.81 12.7634 126.682 12.7657 126.558 12.7415C126.287 12.6837 126.045 12.531 125.876 12.3107C125.355 11.6932 124.702 11.1999 123.966 10.8669C123.23 10.534 122.429 10.3697 121.621 10.3862C120.608 10.3651 119.61 10.639 118.75 11.1746C117.92 11.7026 117.254 12.4514 116.826 13.337C116.354 14.3184 116.119 15.3969 116.14 16.4857C116.121 17.5696 116.371 18.6414 116.869 19.6045C117.336 20.5003 118.042 21.2489 118.91 21.7669C119.817 22.299 120.853 22.5712 121.904 22.5537C122.61 22.5616 123.314 22.4583 123.988 22.2476C124.61 22.0499 125.184 21.7248 125.673 21.2928C125.876 21.1115 126.131 20.9992 126.402 20.9718C126.528 20.9625 126.655 20.9783 126.775 21.0182C126.895 21.0582 127.006 21.1216 127.102 21.2047C127.319 21.3897 127.459 21.6498 127.494 21.9332C127.51 22.0637 127.493 22.1961 127.445 22.3184C127.397 22.4406 127.319 22.549 127.218 22.6335C125.798 23.9342 124.029 24.5841 121.912 24.583Z" fill="black"/>
<path d="M131.884 10.2397C131.75 10.2435 131.617 10.221 131.492 10.1733C131.367 10.1256 131.252 10.0538 131.155 9.96188C131.061 9.87484 130.986 9.76871 130.936 9.65056C130.885 9.5324 130.861 9.40492 130.864 9.27658C130.859 9.14382 130.883 9.01158 130.933 8.88858C130.983 8.76558 131.059 8.65461 131.155 8.563C131.252 8.47109 131.367 8.39925 131.492 8.35159C131.617 8.30393 131.75 8.28137 131.884 8.28522H139.317C139.451 8.28137 139.584 8.30393 139.709 8.35159C139.834 8.39925 139.948 8.47109 140.046 8.563C140.142 8.65461 140.217 8.76558 140.268 8.88858C140.318 9.01158 140.341 9.14382 140.337 9.27658C140.34 9.40492 140.315 9.5324 140.265 9.65056C140.215 9.76871 140.14 9.87484 140.046 9.96188C139.948 10.0538 139.834 10.1256 139.709 10.1733C139.584 10.221 139.451 10.2435 139.317 10.2397H131.884ZM139.142 24.4364C138.191 24.4545 137.252 24.2097 136.431 23.729C135.609 23.2483 134.936 22.5504 134.485 21.7119C134.008 20.8206 133.767 19.8219 133.785 18.811V1.16603C133.775 0.864039 133.885 0.570389 134.091 0.349323C134.194 0.244431 134.318 0.162173 134.455 0.107768C134.592 0.0533635 134.739 0.0279991 134.886 0.0332842C135.036 0.0274812 135.187 0.0527725 135.327 0.107579C135.467 0.162386 135.595 0.245531 135.701 0.351825C135.808 0.458119 135.892 0.58528 135.947 0.725368C136.003 0.865457 136.029 1.01547 136.024 1.16603V18.811C136.024 19.8023 136.315 20.6135 136.899 21.2445C137.182 21.555 137.529 21.8006 137.917 21.9642C138.304 22.1279 138.722 22.2058 139.142 22.1926H139.929C140.071 22.1876 140.213 22.2137 140.344 22.2692C140.475 22.3246 140.592 22.4081 140.688 22.5136C140.886 22.7378 140.99 23.0297 140.979 23.3287C140.984 23.4799 140.955 23.6304 140.895 23.7691C140.834 23.9078 140.744 24.0313 140.629 24.1304C140.386 24.3382 140.074 24.4474 139.755 24.4364H139.142Z" fill="black"/>
<path d="M152.168 24.5828C150.71 24.6078 149.272 24.2457 147.999 23.5333C146.793 22.8511 145.796 21.8535 145.113 20.6473C144.402 19.3749 144.04 17.9367 144.064 16.4789C144.038 15.0115 144.4 13.5631 145.113 12.2806C145.795 11.0746 146.793 10.0774 147.999 9.39636C149.277 8.70831 150.706 8.34814 152.158 8.34814C153.609 8.34814 155.038 8.70831 156.316 9.39636C157.516 10.0804 158.509 11.0772 159.187 12.2806C159.902 13.5639 160.274 15.0099 160.267 16.4789C160.292 17.9387 159.924 19.3783 159.202 20.6473C158.515 21.8495 157.518 22.8459 156.316 23.5333C155.051 24.2459 153.619 24.6082 152.168 24.5828ZM152.168 22.5419C153.231 22.5582 154.279 22.2863 155.2 21.7551C156.083 21.2391 156.809 20.4913 157.298 19.5928C157.814 18.6356 158.075 17.5615 158.056 16.474C158.074 15.3818 157.813 14.3032 157.298 13.3402C156.81 12.4403 156.085 11.6921 155.2 11.1778C154.273 10.6608 153.23 10.3895 152.169 10.3895C151.107 10.3895 150.064 10.6608 149.137 11.1778C148.249 11.6933 147.518 12.4409 147.023 13.3402C146.499 14.3004 146.233 15.3802 146.251 16.474C146.231 17.5632 146.497 18.6385 147.023 19.5928C147.52 20.4908 148.25 21.2379 149.137 21.7551C150.058 22.2866 151.105 22.5585 152.168 22.5419Z" fill="black"/>
<path d="M165.672 24.4362C165.522 24.4513 165.372 24.433 165.23 24.3827C165.089 24.3323 164.961 24.2512 164.855 24.1452C164.749 24.0391 164.668 23.9108 164.617 23.7696C164.567 23.6283 164.549 23.4777 164.564 23.3285V9.59908C164.554 9.44746 164.575 9.29536 164.626 9.15222C164.677 9.00908 164.757 8.87795 164.86 8.76695C164.964 8.65596 165.09 8.56747 165.229 8.50697C165.368 8.44647 165.519 8.41525 165.671 8.41525C165.823 8.41525 165.973 8.44647 166.112 8.50697C166.252 8.56747 166.377 8.65596 166.481 8.76695C166.585 8.87795 166.665 9.00908 166.716 9.15222C166.767 9.29536 166.788 9.44746 166.778 9.59908V23.3285C166.793 23.4775 166.774 23.628 166.724 23.7691C166.674 23.9103 166.593 24.0384 166.487 24.1445C166.381 24.2505 166.253 24.3316 166.112 24.3821C165.971 24.4325 165.821 24.451 165.672 24.4362ZM165.495 14.6124C165.535 13.4716 165.861 12.359 166.443 11.3772C166.99 10.4516 167.762 9.67965 168.687 9.13334C169.619 8.58726 170.683 8.30549 171.763 8.31829C172.657 8.31829 173.346 8.4447 173.832 8.69753C174.318 8.95037 174.502 9.31963 174.386 9.80533C174.365 9.9246 174.32 10.0381 174.252 10.1385C174.184 10.2388 174.096 10.3237 173.993 10.3875C173.787 10.4886 173.556 10.5289 173.328 10.5039C173.065 10.4856 172.769 10.4657 172.438 10.4457C171.459 10.335 170.467 10.4488 169.539 10.7784C168.74 11.0646 168.041 11.5758 167.526 12.2505C167.024 12.9331 166.762 13.7634 166.783 14.6108L165.495 14.6124Z" fill="black"/>
<path d="M79.308 49.1222C78.1468 49.1203 76.9941 48.9235 75.8981 48.54C74.8492 48.2019 73.9051 47.5993 73.1569 46.7902C73.0558 46.6879 72.9796 46.5638 72.9343 46.4273C72.889 46.2909 72.8758 46.1458 72.8957 46.0034C72.9383 45.7036 73.095 45.4319 73.3332 45.2449C73.5746 45.0593 73.8792 44.9757 74.1815 45.012C74.4621 45.0465 74.7209 45.1812 74.9101 45.3913C75.4112 45.9592 76.0481 46.3907 76.7614 46.6455C77.5776 46.9455 78.4418 47.0937 79.3113 47.0829C80.7529 47.0829 81.7925 46.8351 82.4301 46.3394C83.0677 45.8437 83.4004 45.246 83.4281 44.5463C83.4281 43.8455 83.0954 43.2672 82.4301 42.8114C81.7648 42.3557 80.6753 42.0025 79.1616 41.7519C77.1988 41.4414 75.7611 40.8969 74.8485 40.1184C73.9359 39.34 73.479 38.4168 73.4779 37.3489C73.4779 36.3598 73.7402 35.5342 74.2647 34.8722C74.8151 34.1937 75.5412 33.6793 76.3638 33.3852C77.2877 33.0455 78.2655 32.8764 79.2498 32.8861C80.5527 32.8861 81.6749 33.1079 82.6164 33.5515C83.5132 33.9621 84.2982 34.5822 84.9052 35.3596C84.9959 35.4677 85.0635 35.5933 85.1035 35.7287C85.1436 35.8641 85.1553 36.0062 85.1381 36.1463C85.1146 36.2848 85.0606 36.4163 84.98 36.5314C84.8995 36.6465 84.7944 36.7422 84.6723 36.8117C84.4292 36.9493 84.1449 36.9959 83.8706 36.9431C83.5716 36.8961 83.2982 36.7468 83.0971 36.5206C82.6407 35.9786 82.0612 35.5537 81.4071 35.2814C80.7013 35.0069 79.9487 34.873 79.1915 34.8872C78.1226 34.8872 77.2676 35.1089 76.6266 35.5525C75.9857 35.9961 75.6652 36.545 75.6652 37.1992C75.6557 37.6168 75.7837 38.0259 76.0295 38.3636C76.2707 38.6963 76.6948 38.9857 77.282 39.2385C78.0866 39.5463 78.9237 39.7612 79.777 39.8789C81.2353 40.1118 82.3869 40.4567 83.2318 40.9135C84.0768 41.3704 84.6795 41.9049 85.0399 42.517C85.3971 43.1212 85.5833 43.8112 85.5789 44.513C85.5937 45.3827 85.3108 46.2314 84.7771 46.9183C84.1943 47.6438 83.4299 48.2022 82.5615 48.5367C81.526 48.9439 80.4204 49.1428 79.308 49.1222Z" fill="black"/>
<path d="M91.3183 48.9779C91.1662 48.9855 91.0142 48.9624 90.8713 48.9098C90.7284 48.8572 90.5975 48.7763 90.4867 48.6719C90.3839 48.566 90.3038 48.4403 90.2512 48.3025C90.1986 48.1646 90.1746 48.0176 90.1806 47.8701V34.169C90.1755 34.0197 90.1999 33.8709 90.2525 33.731C90.305 33.5912 90.3846 33.4631 90.4867 33.354C90.595 33.2451 90.725 33.1603 90.8683 33.105C91.0116 33.0497 91.1649 33.0251 91.3183 33.033C91.467 33.0271 91.6153 33.0526 91.7535 33.1079C91.8916 33.1633 92.0165 33.2471 92.1201 33.354C92.2222 33.4631 92.3018 33.5912 92.3543 33.731C92.4068 33.8709 92.4312 34.0197 92.4261 34.169V47.8701C92.4343 48.0178 92.4113 48.1655 92.3585 48.3036C92.3057 48.4417 92.2244 48.5671 92.1198 48.6717C92.0153 48.7762 91.8899 48.8575 91.7518 48.9103C91.6136 48.9631 91.466 48.9861 91.3183 48.9779ZM101.55 48.9779C101.248 48.9881 100.954 48.878 100.733 48.6719C100.626 48.5681 100.543 48.4431 100.488 48.305C100.433 48.1669 100.408 48.0187 100.414 47.8701V39.4752C100.414 38.0946 100.054 37.0012 99.3341 36.195C98.9901 35.8018 98.5634 35.4895 98.0847 35.2805C97.6059 35.0714 97.0868 34.9708 96.5646 34.9858C95.3603 34.9858 94.3695 35.3794 93.5921 36.1667C92.8148 36.9541 92.4267 37.9793 92.4278 39.2423H90.8193C90.8348 38.0887 91.1196 36.9546 91.651 35.9305C92.1373 34.999 92.8682 34.2176 93.7651 33.67C94.6889 33.1361 95.7371 32.855 96.8041 32.855C97.8711 32.855 98.9193 33.1361 99.8431 33.67C100.737 34.2265 101.455 35.0254 101.912 35.9738C102.408 36.9652 102.656 38.1295 102.656 39.4669V47.8618C102.664 48.0095 102.641 48.1571 102.588 48.2953C102.535 48.4334 102.454 48.5588 102.35 48.6633C102.245 48.7679 102.12 48.8492 101.981 48.902C101.843 48.9548 101.696 48.9778 101.548 48.9696L101.55 48.9779ZM111.723 48.9779C111.421 48.9881 111.127 48.878 110.906 48.6719C110.8 48.5681 110.716 48.4431 110.661 48.305C110.606 48.1669 110.581 48.0187 110.587 47.8701V39.4752C110.587 38.0946 110.227 37.0012 109.507 36.195C109.163 35.8018 108.737 35.4895 108.258 35.2805C107.779 35.0714 107.26 34.9708 106.738 34.9858C105.533 34.9858 104.548 35.3888 103.78 36.195C103.013 37.0012 102.64 38.0774 102.661 39.4236H100.65C100.643 38.2248 100.933 37.0429 101.495 35.9838C102.012 35.0207 102.789 34.2224 103.739 33.68C104.727 33.1273 105.844 32.8461 106.976 32.865C108.047 32.8447 109.103 33.1272 110.021 33.68C110.915 34.2365 111.633 35.0354 112.09 35.9838C112.586 36.9751 112.834 38.1395 112.834 39.4768V47.8718C112.842 48.0194 112.819 48.1671 112.766 48.3052C112.713 48.4433 112.632 48.5688 112.528 48.6733C112.423 48.7779 112.298 48.8592 112.16 48.912C112.021 48.9647 111.874 48.9878 111.726 48.9796L111.723 48.9779Z" fill="black"/>
<path d="M125.294 49.1224C123.881 49.1446 122.488 48.7768 121.27 48.0595C120.093 47.3574 119.123 46.3566 118.458 45.1586C117.757 43.8933 117.4 42.4664 117.423 41.0202C117.398 39.5604 117.766 38.1208 118.488 36.8518C119.179 35.644 120.179 34.6426 121.387 33.9509C122.652 33.2525 124.074 32.8862 125.519 32.8862C126.965 32.8862 128.387 33.2525 129.652 33.9509C130.853 34.6467 131.848 35.6475 132.538 36.8518C133.259 38.1224 133.636 39.5593 133.631 41.0202L132.726 41.7188C132.746 43.0423 132.409 44.3468 131.75 45.4946C131.114 46.5959 130.2 47.5104 129.098 48.146C127.941 48.8077 126.627 49.145 125.294 49.1224ZM125.527 47.0831C126.586 47.1009 127.629 46.8282 128.544 46.2947C129.426 45.7729 130.151 45.023 130.642 44.124C131.149 43.1651 131.415 42.0967 131.415 41.0119C131.415 39.927 131.149 38.8586 130.642 37.8997C130.145 37.0048 129.422 36.2563 128.544 35.729C127.628 35.2038 126.59 34.9274 125.534 34.9274C124.478 34.9274 123.441 35.2038 122.525 35.729C121.638 36.2546 120.905 37.0029 120.397 37.8997C119.88 38.8554 119.609 39.9251 119.609 41.0119C119.609 42.0986 119.88 43.1683 120.397 44.124C120.905 45.0346 121.65 45.7906 122.554 46.3116C123.457 46.8326 124.484 47.0992 125.527 47.0831ZM132.493 48.9777C132.344 48.9829 132.195 48.9585 132.055 48.906C131.915 48.8534 131.787 48.7738 131.678 48.6716C131.571 48.5682 131.487 48.4433 131.432 48.3051C131.376 48.1669 131.351 48.0186 131.357 47.8699V42.8798L131.904 40.5877L133.624 41.0252V47.8749C133.63 48.0236 133.604 48.1718 133.549 48.3099C133.494 48.448 133.41 48.573 133.303 48.6766C133.083 48.8793 132.792 48.9874 132.493 48.9777Z" fill="black"/>
<path d="M139.531 48.9777C139.382 48.9925 139.231 48.974 139.09 48.9235C138.949 48.8731 138.821 48.7919 138.715 48.686C138.609 48.58 138.528 48.4518 138.477 48.3107C138.427 48.1696 138.408 48.0191 138.423 47.8699V34.1406C138.415 33.99 138.437 33.8393 138.489 33.6977C138.541 33.5561 138.621 33.4266 138.725 33.3171C138.829 33.2076 138.954 33.1203 139.092 33.0607C139.231 33.0011 139.38 32.9704 139.531 32.9704C139.682 32.9704 139.831 33.0011 139.969 33.0607C140.108 33.1203 140.233 33.2076 140.336 33.3171C140.44 33.4266 140.52 33.5561 140.572 33.6977C140.624 33.8393 140.647 33.99 140.638 34.1406V47.8699C140.653 48.0191 140.635 48.1696 140.584 48.3107C140.534 48.4518 140.453 48.58 140.347 48.686C140.241 48.7919 140.113 48.8731 139.971 48.9235C139.83 48.974 139.68 48.9925 139.531 48.9777ZM139.356 39.1539C139.396 38.0133 139.721 36.9009 140.302 35.9187C140.85 34.9929 141.622 34.2205 142.548 33.6731C143.48 33.1268 144.543 32.845 145.624 32.8581C146.517 32.8581 147.207 32.984 147.693 33.2357C148.179 33.4885 148.358 33.8594 148.247 34.3435C148.226 34.463 148.18 34.5768 148.112 34.6774C148.044 34.778 147.956 34.8632 147.852 34.9273C147.646 35.0285 147.415 35.0689 147.187 35.0438L146.299 34.9855C145.319 34.8754 144.327 34.9891 143.398 35.3182C142.6 35.6056 141.902 36.1173 141.389 36.7919C140.886 37.4751 140.624 38.3059 140.645 39.1539H139.356Z" fill="black"/>
<path d="M151.477 34.9505C151.344 34.9549 151.21 34.9327 151.085 34.8853C150.96 34.8379 150.846 34.7662 150.749 34.6744C150.654 34.5874 150.58 34.4812 150.529 34.3631C150.479 34.2449 150.455 34.1174 150.458 33.9891C150.453 33.8561 150.477 33.7236 150.527 33.6004C150.577 33.4771 150.653 33.3659 150.749 33.2739C150.946 33.0892 151.207 32.9899 151.477 32.9977H158.911C159.181 32.9901 159.442 33.0893 159.639 33.2739C159.735 33.3661 159.811 33.4774 159.861 33.6006C159.911 33.7238 159.935 33.8562 159.93 33.9891C159.933 34.1174 159.908 34.2447 159.858 34.3628C159.808 34.4809 159.733 34.5871 159.639 34.6744C159.542 34.7661 159.428 34.8377 159.303 34.8851C159.178 34.9324 159.044 34.9547 158.911 34.9505H151.477ZM158.734 48.9776C157.782 48.9965 156.844 48.7518 156.022 48.2707C155.2 47.7896 154.527 47.0908 154.077 46.2514C153.599 45.3605 153.357 44.3615 153.377 43.3505V28.8477C153.371 28.6983 153.396 28.5494 153.448 28.4095C153.501 28.2695 153.58 28.1415 153.683 28.0326C153.786 27.9255 153.911 27.8416 154.049 27.7863C154.188 27.7309 154.336 27.7055 154.485 27.7116C154.635 27.706 154.786 27.7315 154.926 27.7867C155.066 27.8418 155.194 27.9253 155.3 28.0319C155.407 28.1385 155.49 28.266 155.546 28.4064C155.601 28.5467 155.626 28.697 155.621 28.8477V43.3505C155.621 44.3419 155.912 45.1536 156.496 45.7857C156.779 46.0958 157.127 46.341 157.514 46.5044C157.901 46.6677 158.319 46.7454 158.739 46.7321H159.528C159.67 46.7276 159.811 46.754 159.942 46.8094C160.072 46.8648 160.189 46.948 160.285 47.0531C160.483 47.2777 160.588 47.5703 160.576 47.8698C160.581 48.0211 160.552 48.1716 160.492 48.3103C160.432 48.449 160.341 48.5725 160.227 48.6716C159.983 48.879 159.671 48.9881 159.352 48.9776H158.734Z" fill="black"/>
</svg>
