<svg width="30" height="30" viewBox="0 0 30 30" fill="none" xmlns="http://www.w3.org/2000/svg">
<path d="M17.4589 21.1845L17.7661 21.3539C18.0663 21.5207 18.4436 21.4413 18.6511 21.1676L17.4589 21.1845ZM17.4589 21.1845C16.4405 20.6295 15.1734 19.9384 12.6205 17.3846M17.4589 21.1845L12.6205 17.3846M22.4881 18.6559L22.4884 18.6561L28.0323 22.3533L22.4881 18.6559ZM22.4881 18.6559C21.741 18.1617 20.7396 18.3243 20.1873 19.0296L20.1871 19.0298M22.4881 18.6559L20.1871 19.0298M20.1871 19.0298L18.5722 21.1062L18.5715 21.1072M20.1871 19.0298L18.5715 21.1072M18.5715 21.1072C18.394 21.3412 18.0714 21.4091 17.8146 21.2665L17.8144 21.2663M18.5715 21.1072L17.8144 21.2663M17.8144 21.2663L17.5072 21.097L17.5067 21.0967M17.8144 21.2663L17.5067 21.0967M17.5067 21.0967L17.5046 21.0956C16.494 20.5447 15.2348 19.8584 12.6912 17.3139C10.1484 14.7702 9.4603 13.51 8.90954 12.5014L8.9078 12.4982L8.90771 12.4981M17.5067 21.0967L8.90771 12.4981M8.90771 12.4981L8.73928 12.1909L8.73872 12.1899M8.90771 12.4981L8.73872 12.1899M8.73872 12.1899C8.5941 11.9331 8.66071 11.6091 8.89487 11.4302L8.89556 11.4296M8.73872 12.1899L8.89556 11.4296M8.89556 11.4296L10.9706 9.81517L10.9708 9.81496M8.89556 11.4296L10.9708 9.81496M10.9708 9.81496C11.6758 9.26263 11.8386 8.26157 11.345 7.51432L11.3448 7.51396M10.9708 9.81496L11.3448 7.51396M11.3448 7.51396L7.64756 1.96998C7.14152 1.20879 6.12626 0.980289 5.34286 1.45121L3.02536 2.84335C3.02522 2.84343 3.02508 2.84351 3.02494 2.84359C2.27445 3.28495 1.72384 3.99961 1.48854 4.83787L1.48839 4.83843M11.3448 7.51396L1.48839 4.83843M1.48839 4.83843C0.640082 7.92935 1.29466 13.2144 9.04057 20.9613L9.11129 20.8906M1.48839 4.83843L9.11129 20.8906M9.11129 20.8906C15.2629 27.0417 19.8425 28.6959 22.9903 28.6959L22.9898 28.7959C22.99 28.7959 22.9901 28.7959 22.9903 28.7959C23.7235 28.799 24.4539 28.7036 25.1617 28.5122L25.1626 28.512M9.11129 20.8906L25.1626 28.512M25.1626 28.512C26.001 28.2769 26.7158 27.7263 27.1569 26.9756M25.1626 28.512L27.1569 26.9756M27.1569 26.9756C27.157 26.9754 27.1571 26.9753 27.1572 26.9751M27.1569 26.9756L27.1572 26.9751M27.1572 26.9751L28.5507 24.6591C29.0222 23.8756 28.7939 22.8597 28.0325 22.3534L27.1572 26.9751ZM12.6205 17.3846C10.0676 14.8307 9.37512 13.5627 8.82004 12.5462M12.6205 17.3846L8.82004 12.5462M8.82004 12.5462L8.82003 12.5462L8.82004 12.5462ZM27.5928 24.0875L27.5927 24.0877L26.2019 26.406L26.2013 26.407C25.9071 26.9105 25.4295 27.2807 24.8686 27.4402C22.1108 28.1972 17.2405 27.5867 9.82785 20.174C2.41526 12.7614 1.8047 7.89153 2.56165 5.13331C2.72134 4.57165 3.09206 4.09341 3.5962 3.79872L3.59621 3.79873L3.59718 3.79814L5.91552 2.40733L5.91564 2.40726C6.18985 2.24227 6.54532 2.32224 6.72245 2.58871L6.7225 2.58878L8.73092 5.60411L8.73094 5.60414L10.4164 8.13212C10.4165 8.13219 10.4165 8.13227 10.4166 8.13234C10.5895 8.39406 10.5327 8.74471 10.2859 8.93843C10.2858 8.93848 10.2858 8.93854 10.2857 8.93859L8.21117 10.5523C8.21107 10.5524 8.21097 10.5524 8.21086 10.5525C7.54008 11.0657 7.34848 11.9939 7.76136 12.7307C7.76143 12.7308 7.7615 12.7309 7.76158 12.731L7.92581 13.0294C7.92585 13.0295 7.92589 13.0296 7.92594 13.0297C8.51325 14.1068 9.24414 15.4458 11.8994 18.1007C14.5548 20.7556 15.8933 21.4865 16.97 22.0737C16.9701 22.0738 16.9701 22.0738 16.9702 22.0738L17.269 22.2385C17.2691 22.2385 17.2691 22.2386 17.2692 22.2386C18.0059 22.6516 18.9343 22.4601 19.4475 21.7893C19.4476 21.7892 19.4477 21.789 19.4478 21.7889L21.0615 19.7144C21.0615 19.7144 21.0615 19.7143 21.0616 19.7142C21.2553 19.4676 21.6058 19.4108 21.8676 19.5834C21.8678 19.5835 21.8679 19.5836 21.868 19.5837L27.4112 23.2807L27.4114 23.2808C27.678 23.4578 27.758 23.8134 27.5928 24.0875Z" fill="#181818" stroke="#373737" stroke-width="0.2"/>
</svg>
